<?xml version="1.0" encoding="utf-8"?>
<!-- Generator: Adobe Illustrator 27.5.0, SVG Export Plug-In . SVG Version: 6.00 Build 0)  -->
<svg version="1.1" xmlns="http://www.w3.org/2000/svg" xmlns:xlink="http://www.w3.org/1999/xlink" x="0px" y="0px"
	 viewBox="0 0 750 500" style="enable-background:new 0 0 750 500;" xml:space="preserve">
<g id="BACKGROUND">
	<rect style="fill:#FFFFFF;" width="750" height="500"/>
</g>
<g id="OBJECTS">
	<g>
		<path style="fill:#E8EFF7;" d="M680.717,254.471c-12.942-36.311-36.641-72.991-73.064-81.582
			c-27.11-6.395-58.36,3.535-81.538-12.377c-30.413-20.878-25.979-71.369-52.357-97.482c-16.537-16.371-42.011-19.345-64.438-14.7
			c-22.427,4.645-43.021,15.762-64.278,24.506c-14.64,6.022-30.215,11.164-46.075,11.781c-12.154,0.473-20.699-4.683-32.148-6.675
			c-28.072-4.886-64.429,0.4-90.232,12.422c-30.948,14.418-55.93,49.112-48.484,83.416c4.121,18.986,17.293,35.109,19.965,54.371
			c4.456,32.119-20.792,59.663-44.398,80.984s-49.865,46.96-48.313,79.369c1.366,28.518,25.417,51.45,51.72,59.956l500.363,1.87
			c38.546-5.242,69.826-38.918,81.222-77.433C700.057,334.38,694.186,292.261,680.717,254.471z"/>
		<g>
			<g>
				<g>
					<g>
						<g>
							<path style="fill:#DE5D1D;" d="M579.05,355.597c3.619-11.775-0.467-25.537-9.926-33.428
								c-2.012-1.679-4.255-3.126-5.922-5.148c-3.291-3.991-4.107-9.925-8.306-12.945c-3.084-2.217-7.241-2.266-10.603-4.034
								c-2.286-1.203-4.117-3.157-6.431-4.305c-4.902-2.433-11.386-0.453-14.519,4.034c-3.133,4.487-2.936,10.877,0.026,15.479
								c2.092,3.25,5.435,5.799,6.483,9.519c0.718,2.55,0.233,5.275,0.527,7.908c0.981,8.756,10.095,14.25,18.672,16.265
								C557.629,350.955,579.05,355.597,579.05,355.597S577.677,355.388,579.05,355.597z"/>
						</g>
						<path style="fill:#BF3100;" d="M561.843,331.604c-4.971-5.442-10.459-10.255-16.427-14.574
							c-3.022-2.187-6.094-4.31-9.01-6.639c-3.027-2.417-5.616-5.125-8.275-7.925c-0.04-0.042-0.102,0.022-0.073,0.067
							c3.873,5.927,10.413,10.062,16.033,14.149c6.374,4.635,12.258,9.719,17.532,15.589c10.296,11.46,18.202,24.762,26.268,37.816
							c0.213,0.345,0.716-0.015,0.513-0.359C580.538,356.395,572.323,343.078,561.843,331.604z"/>
					</g>
					<g>
						<g>
							<path style="fill:#F0D625;" d="M593.569,334.056c1.561-7.181,3.013-14.45,2.956-21.798
								c-0.057-7.348-1.723-14.86-5.923-20.889c-1.58-2.268-3.53-4.364-4.383-6.993c-1.276-3.934,0.15-8.167,1.359-12.121
								c1.208-3.955,2.15-8.466,0.074-12.042c-2.414-4.158-7.974-5.432-10.936-9.219c-2.116-2.705-2.618-6.341-2.519-9.773
								c0.099-3.432,0.72-6.852,0.531-10.28c-0.154-2.796-0.979-5.765-3.174-7.503c-2.043-1.617-4.965-1.837-7.427-0.985
								c-2.462,0.853-4.503,2.652-6.105,4.706c-3.838,4.919-5.393,11.548-4.143,17.661c0.585,2.86,1.754,5.664,1.578,8.578
								c-0.244,4.06-3.037,7.524-3.933,11.491c-0.971,4.301,0.376,8.809,2.362,12.746c1.986,3.937,4.611,7.534,6.468,11.533
								c2.336,5.034,3.398,10.654,3.059,16.193c-0.468,7.646-3.533,15.334-1.681,22.766c1.462,5.868,5.818,10.604,10.626,14.273
								c3.661,2.794,7.672,5.13,11.909,6.936C584.266,349.335,592.429,339.301,593.569,334.056z"/>
						</g>
						<path style="fill:#D67900;" d="M573.637,272.1c-1.006-4.441-3.913-8.027-5.752-12.118c-2.174-4.836-3.345-10.056-3.603-15.345
							c-0.266-5.452,0.773-10.595,2.116-15.841c0.018-0.072-0.089-0.123-0.124-0.052c-3.808,7.797-3.838,17.584-1.602,25.827
							c1.233,4.544,3.44,8.431,5.667,12.536c2.653,4.889,2.707,9.911,2.318,15.322c-0.344,4.784-0.665,9.502,0.661,14.173
							c1.488,5.244,4.039,10.06,5.116,15.441c1.976,9.875,0.882,20.044,2.285,29.984c1.483,10.511,6.398,19.699,15.583,25.325
							c0.39,0.239,0.707-0.345,0.351-0.603c-8.067-5.844-12.956-14.546-14.472-24.305c-1.463-9.411-0.55-19.016-2.003-28.432
							c-0.766-4.967-2.546-9.445-4.309-14.117c-1.848-4.895-2.385-9.562-2.054-14.762C574.09,280.81,574.606,276.379,573.637,272.1z
							"/>
					</g>
					<g>
						<g>
							<path style="fill:#3157F3;" d="M602.025,351.119c9.665-5.462,19.859-10.821,25.727-20.245
								c5.868-9.424,7.669-21.664,3.28-31.862c-3.532-8.208-10.89-15.362-10.455-24.287c0.528-10.828,12.616-20.478,8.454-30.488
								c-3.416-8.216-15.361-9.317-20.163-16.808c-7.655-11.942,8.106-29.32,0.243-41.126c-3.36-5.044-10.108-6.869-16.131-6.197
								c-12.014,1.342-22.769,14.325-18.124,25.486c2.907,6.987,10.994,12.911,8.767,20.144
								c-2.416,7.845-14.434,7.876-18.972,14.716c-4.979,7.504,1.894,17.052,8.324,23.358c9.201,9.024,19.223,20.863,15.562,33.219
								c-2.822,9.522-13.205,15.788-14.615,25.618c-1.383,9.639,6.432,18.019,14.194,23.899l7.097,9.806
								C595.212,356.352,600.155,352.175,602.025,351.119z"/>
						</g>
						<path style="fill:#1200C3;" d="M591.466,188.816c-5.984,10.681,1.386,23.372,5.165,33.432
							c2.458,6.542,3.504,12.939,2.115,19.857c-1.195,5.953-3.411,11.681-4.144,17.73c-1.541,12.717,5.17,24.032,7.47,36.19
							c2.469,13.049-1.521,26.008-4.588,38.59c-3.153,12.935-5.707,27.803,1.339,39.943c0.338,0.582,1.128,0.045,0.867-0.534
							c-11.097-24.507,6.96-48.936,4.754-73.84c-1.101-12.43-8.316-23.631-8.356-36.203c-0.019-6.187,2.055-12.074,3.56-18.001
							c1.442-5.68,2.121-11.3,0.892-17.091c-2.861-13.476-12.865-25.335-8.051-39.686
							C592.694,188.594,591.763,188.286,591.466,188.816z"/>
					</g>
					<g>
						<g>
							<path style="fill:#DE5D1D;" d="M630.741,349.957c5.378-4.775,9.298-11.426,9.865-18.595
								c0.489-6.179-1.233-13.249,2.768-17.983c4.121-4.878,12.269-4.476,16.518-9.243c3.226-3.62,3.164-9.148,1.822-13.807
								c-1.342-4.66-3.756-8.992-4.708-13.747c-1.846-9.229,2.019-18.557,6.031-27.071c1.549-3.286,3.162-6.669,3.324-10.298
								c0.162-3.629-1.523-7.607-4.888-8.974c-2.113-0.859-4.536-0.568-6.693,0.175c-9.198,3.171-14.02,13.78-13.881,23.508
								c0.053,3.739,0.659,7.603-0.575,11.133c-3.043,8.702-14.893,10.451-20.688,17.621c-5.632,6.969-4.216,17.116-2.012,25.801
								c0.436,1.72,0.889,3.557,0.308,5.233c-0.486,1.402-1.624,2.466-2.755,3.428c-4.331,3.685-9.156,6.768-13.381,10.573
								c-4.226,3.805-7.923,8.532-9.085,14.099c-1.162,5.566,4.596,13.434,9.471,16.363
								C602.181,358.172,625.363,354.732,630.741,349.957z"/>
						</g>
						<path style="fill:#BF3100;" d="M657.803,232.689c-8.138,4.541-10.107,14.804-10.492,23.337
							c-0.233,5.152-0.159,10.361-1.225,15.433c-1.063,5.06-3.57,9.368-6.741,13.388c-5.589,7.085-11.929,13.336-12.679,22.818
							c-0.442,5.59,0.146,11.171-1.712,16.574c-1.935,5.625-5.687,9.677-10.091,13.512c-4.042,3.519-7.661,7.201-10.013,12.087
							c-2.252,4.678-5.85,19.77-5.36,24.957c0.056,0.589,0.9,0.495,0.901-0.078c0.007-5.033,3.34-20.204,5.546-24.758
							c2.436-5.028,6.246-8.565,10.373-12.203c3.505-3.089,6.63-6.422,8.597-10.715c1.939-4.232,2.438-8.688,2.506-13.295
							c0.079-5.359,0.246-10.419,2.819-15.257c2.159-4.06,5.282-7.496,8.213-11.001c2.639-3.157,5.325-6.439,7.075-10.195
							c1.982-4.255,2.582-8.977,2.826-13.616c0.56-10.644-0.635-24.095,9.626-30.756
							C658.126,232.818,657.959,232.602,657.803,232.689z"/>
					</g>
				</g>
				<polygon style="fill:#120089;" points="618.532,445.172 573.291,445.172 564.63,362.357 627.193,362.357 				"/>
				<path style="opacity:0.24;fill:#120089;" d="M616.396,433.299c-14.635-4.757-25.82-14.698-33.717-27.756
					c-7.849-12.98-13.119-28.052-15.02-43.186h-3.029l8.661,82.815h45.241l1.14-10.903
					C618.574,433.971,617.48,433.651,616.396,433.299z"/>
			</g>
			<g>
				<g>
					<g>
						<g>
							<path style="fill:#F0D625;" d="M112.862,390.525c-4.737-4.467-8.104-10.592-8.423-17.095
								c-0.275-5.605,1.475-11.956-2.017-16.349c-3.597-4.526-10.982-4.383-14.698-8.812c-2.822-3.363-2.616-8.364-1.275-12.544
								c1.341-4.18,3.643-8.036,4.633-12.313c1.921-8.302-1.324-16.848-4.724-24.661c-1.312-3.016-2.68-6.121-2.729-9.41
								c-0.049-3.288,1.585-6.843,4.667-7.989c1.936-0.72,4.121-0.391,6.052,0.34c8.238,3.119,12.314,12.85,11.925,21.65
								c-0.15,3.382-0.803,6.863,0.219,10.091c2.518,7.958,13.194,9.861,18.244,16.507c4.908,6.459,3.351,15.603,1.121,23.403
								c-0.441,1.544-0.901,3.195-0.42,4.728c0.402,1.282,1.403,2.276,2.4,3.177c3.82,3.452,8.102,6.373,11.823,9.931
								c3.721,3.558,6.939,7.936,7.839,13.005c0.901,5.069-5.222,11.836-9.712,14.354
								C137.786,398.537,117.599,394.992,112.862,390.525z"/>
						</g>
						<path style="fill:#E58F00;" d="M91.551,283.668c7.242,4.33,8.745,13.671,8.862,21.404c0.071,4.669-0.137,9.38,0.69,13.999
							c0.825,4.608,2.977,8.575,5.737,12.298c4.865,6.563,10.434,12.392,10.856,20.993c0.249,5.07-0.435,10.105,1.1,15.045
							c1.599,5.143,4.884,8.912,8.766,12.502c3.562,3.294,6.738,6.725,8.734,11.21c1.911,4.294,2.797,8.887,2.213,13.567
							c-0.066,0.531-0.828,0.423-0.813-0.095c0.13-4.555-0.514-9.211-2.387-13.392c-2.068-4.616-5.42-7.921-9.057-11.324
							c-3.088-2.891-5.826-5.992-7.489-9.93c-1.64-3.882-1.97-7.928-1.907-12.099c0.073-4.851,0.06-9.436-2.137-13.883
							c-1.844-3.732-4.577-6.927-7.134-10.179c-2.302-2.928-4.644-5.971-6.126-9.418c-1.679-3.904-2.093-8.194-2.188-12.399
							c-0.218-9.647,1.228-21.788-7.877-28.094C91.255,283.777,91.412,283.585,91.551,283.668z"/>
					</g>
					<g>
						<g>
							<path style="fill:#DE5D1D;" d="M156.468,363.395c-1.43-7.788-9.898-12.457-12.442-19.956
								c-3.302-9.731,4.314-19.475,11.364-26.951c4.926-5.224,10.105-13.045,5.904-18.869c-3.829-5.308-13.405-4.959-15.574-11.134
								c-2-5.693,4.259-10.665,6.357-16.322c3.353-9.037-5.62-19.046-15.234-19.741c-4.82-0.348-10.14,1.316-12.659,5.439
								c-5.897,9.651,7.201,23.006,1.474,32.758c-3.592,6.118-13.075,7.367-15.541,14.02c-3.004,8.105,6.927,15.417,7.685,24.027
								c0.624,7.098-5.015,13.026-7.574,19.676c-3.179,8.262-1.363,17.957,3.606,25.283c4.969,7.326,19.014,10.503,27.375,13.411
								C141.21,385.036,157.87,371.031,156.468,363.395z"/>
						</g>
						<path style="fill:#BF3100;" d="M138.321,257.314c5.1,8.324-0.377,18.664-3.074,26.797c-1.754,5.289-2.389,10.418-1.067,15.887
							c1.138,4.706,3.081,9.201,3.854,13.997c1.624,10.084-3.371,19.308-4.825,29.066c-1.561,10.474,2.022,20.674,4.857,30.603
							c2.915,10.207,6.562,19.201,1.327,29.092c-0.251,0.474-0.898,0.07-0.707-0.398c8.078-19.871-8.219-35.999-7.237-55.909
							c0.49-9.937,5.89-19.086,5.53-29.104c-0.177-4.93-2.014-9.556-3.397-14.231c-1.326-4.481-2.042-8.937-1.243-13.589
							c1.86-10.826,9.461-20.586,5.179-31.87C137.336,257.176,138.068,256.901,138.321,257.314z"/>
					</g>
					<g>
						<g>
							<path style="fill:#3157F3;" d="M184.619,313.533c1.573-4.613,1.024-9.904-1.464-14.095c-1.039-1.75-2.442-3.346-4.266-4.251
								c-1.824-0.904-4.11-1.023-5.853,0.028c-1.873,1.129-2.806,3.349-3.202,5.5c-0.485,2.638-0.342,5.349-0.605,8.019
								c-0.263,2.67-1.012,5.437-2.919,7.324c-2.67,2.642-7.104,3.079-9.386,6.062c-1.962,2.566-1.679,6.155-1.134,9.339
								c0.545,3.184,1.232,6.605-0.146,9.527c-0.921,1.953-2.64,3.384-4.088,4.985c-3.851,4.257-5.885,9.913-6.656,15.601
								c-0.771,5.688-0.365,11.465,0.134,17.184c0.365,4.177,5.698,12.76,5.698,12.76c3.462-0.98,6.801-2.393,9.915-4.196
								c4.088-2.367,7.932-5.607,9.646-10.009c2.17-5.576,0.556-11.837,0.95-17.807c0.285-4.326,1.663-8.576,3.972-12.246
								c1.834-2.916,4.224-5.443,6.152-8.297c1.929-2.854,3.418-6.214,3.091-9.643c-0.302-3.163-2.123-6.123-1.911-9.294
								C182.7,317.749,183.883,315.691,184.619,313.533z"/>
						</g>
						<path style="fill:#1200C3;" d="M166.609,332.72c1.219-3.342,3.826-5.833,5.656-8.821c2.163-3.533,3.586-7.461,4.309-11.534
							c0.745-4.198,0.449-8.286-0.072-12.484c-0.007-0.057,0.081-0.087,0.101-0.028c2.18,6.418,1.234,14.006-1.313,20.171
							c-1.405,3.399-3.499,6.193-5.632,9.154c-2.539,3.526-3.078,7.412-3.312,11.644c-0.207,3.741-0.424,7.429-1.914,10.917
							c-1.672,3.916-4.125,7.396-5.492,11.459c-2.508,7.456-2.666,15.444-4.737,23.009c-2.189,7.998-6.907,14.632-14.58,18.082
							c-0.326,0.147-0.514-0.337-0.212-0.502c6.829-3.731,11.478-9.99,13.619-17.402c2.064-7.148,2.307-14.681,4.364-21.833
							c1.085-3.773,2.907-7.067,4.736-10.513c1.916-3.611,2.794-7.173,3.052-11.236C165.397,339.423,165.435,335.939,166.609,332.72
							z"/>
					</g>
				</g>
				<polygon style="fill:#120089;" points="164.184,445.172 119.902,445.172 111.425,397.965 172.662,397.965 				"/>
				<path style="opacity:0.24;fill:#120089;" d="M119.176,397.965h-7.752l8.478,47.207h44.282l0.613-3.413
					C145.413,432.956,127.718,417.549,119.176,397.965z"/>
			</g>
		</g>
		<path style="fill:#120089;" d="M656.925,453.654H93.075c-2.374,0-4.299-1.925-4.299-4.299l0,0c0-2.375,1.925-4.299,4.299-4.299
			h563.851c2.375,0,4.299,1.925,4.299,4.299l0,0C661.225,451.729,659.3,453.654,656.925,453.654z"/>
		<g>
			<g>
				<path style="fill:#010C87;" d="M563.32,445.951c-1.882,0-3.659-1.138-4.382-2.999l-57.221-147.299l-60.569,147.383
					c-0.986,2.401-3.734,3.545-6.133,2.561c-2.401-0.987-3.547-3.733-2.56-6.133l65.039-158.259
					c0.725-1.764,2.443-2.913,4.346-2.913c0.016,0,0.031,0,0.046,0c1.922,0.019,3.639,1.206,4.335,2.998L567.7,439.549
					c0.94,2.42-0.259,5.143-2.679,6.083C564.462,445.848,563.886,445.951,563.32,445.951z"/>
			</g>
			<g>
				<path style="fill:#010C87;" d="M509.507,289.75l-3.287-8.46c-0.696-1.792-2.413-2.979-4.335-2.998h-0.046
					c-1.904,0-3.621,1.149-4.346,2.913l-3.512,8.545H509.507z"/>
			</g>
			<g>
				<path style="fill:#010C87;" d="M276.322,432.589L276.322,432.589c-5.118,0-9.266-4.149-9.266-9.266v-83.3h18.533v83.3
					C285.588,428.44,281.44,432.589,276.322,432.589z"/>
				<path style="fill:#010C87;" d="M276.322,432.589L276.322,432.589c-5.118,0-9.266-4.149-9.266-9.266v-83.3h18.533v83.3
					C285.588,428.44,281.44,432.589,276.322,432.589z"/>
				<path style="opacity:0.58;fill:#010C87;" d="M285.588,417.984v-77.962h-18.533v40.992
					C274.232,392.865,280.879,405.041,285.588,417.984z"/>
				<g>
					<path style="fill:#010C87;" d="M329.968,440.23h-7.519v-2.648c0-6.075-4.942-11.017-11.017-11.017h-70.218
						c-6.075,0-11.018,4.943-11.018,11.017v2.648h-7.519v-2.648c0-10.222,8.316-18.537,18.537-18.537h70.218
						c10.221,0,18.537,8.315,18.537,18.537V440.23z"/>
				</g>
				<path style="fill:#002DB0;" d="M326.928,336.595l-45.961-117.411c-0.657-3.594-3.789-6.206-7.443-6.206h-80.037l17.722,108.68
					c1.419,8.615,8.867,14.937,17.599,14.937H326.928z"/>
				<g>
					<path style="fill:#A2D9FF;" d="M327.717,345.054h-90.823c-14.04,0-26.064-10.025-28.588-23.837l-18.871-103.249
						c-0.42-2.298,1.102-4.501,3.4-4.921c2.299-0.416,4.501,1.102,4.921,3.4l18.871,103.25c1.789,9.791,10.313,16.898,20.266,16.898
						h90.823c2.336,0,4.23,1.893,4.23,4.23C331.946,343.161,330.053,345.054,327.717,345.054z"/>
				</g>
				<g>
					<path style="fill:#A2D9FF;" d="M327.717,336.595h-90.823c-9.953,0-18.477-7.107-20.266-16.898l-0.132-0.723
						c-1.404-1.555-2.715-3.203-3.926-4.948c-3.41-4.913-6.072-10.271-8.455-15.742l4.192,22.933
						c2.524,13.812,14.548,23.837,28.588,23.837h90.823c2.336,0,4.23-1.894,4.23-4.23S330.053,336.595,327.717,336.595z"/>
				</g>
				<circle style="fill:#120089;" cx="227.018" cy="435.305" r="9.706"/>
				<circle style="fill:#010C87;" cx="250.949" cy="435.305" r="9.706"/>
				<circle style="fill:#120089;" cx="302.426" cy="435.305" r="9.706"/>
				<circle style="fill:#010C87;" cx="326.208" cy="435.305" r="9.706"/>
			</g>
			<g>
				<g>
					<path style="fill:#A2D9FF;" d="M522.477,225.751h-45.722c0.023,2.169,0.038,4.337,0.036,6.506
						c-0.249,0.346-0.499,0.693-0.749,1.039c0.248,0.32,0.496,0.64,0.744,0.96c-0.053,11.148-0.448,22.295-1.185,33.418
						c-0.036,0.551-0.074,1.102-0.112,1.653c-0.028,0.406-0.057,0.812-0.086,1.218c-0.1,1.392-0.205,2.783-0.315,4.173
						c15.242,0,30.484,0,45.726,0c0.248-3.129,0.47-6.261,0.664-9.395c0.249-0.718,0.498-1.436,0.744-2.154
						c-0.166-0.675-0.333-1.35-0.502-2.025C522.359,249.36,522.605,237.553,522.477,225.751z"/>
					<path style="fill:#FDFDFD;" d="M510.672,225.751H464.95c0.023,2.169,0.039,4.337,0.036,6.506
						c-0.249,0.346-0.499,0.693-0.749,1.039c0.248,0.32,0.496,0.64,0.744,0.96c-0.053,11.148-0.448,22.295-1.185,33.418
						c-0.037,0.551-0.074,1.102-0.112,1.653c-0.028,0.406-0.057,0.812-0.086,1.218c-0.1,1.392-0.205,2.783-0.315,4.173
						c15.242,0,30.484,0,45.726,0c0.248-3.129,0.47-6.261,0.664-9.395c0.25-0.718,0.498-1.436,0.744-2.154
						c-0.166-0.675-0.333-1.35-0.501-2.025C510.554,249.36,510.8,237.553,510.672,225.751z"/>
					<path style="fill:#A2D9FF;" d="M465.81,229.459c12.926-0.009,25.852-0.018,38.778-0.027c0.114,0,0.113-0.215,0-0.215
						c-12.926-0.009-25.852-0.018-38.778-0.027C465.669,229.19,465.669,229.459,465.81,229.459z M497.244,231.941
						c3.389,0.103,6.794-0.043,10.184-0.081c0.028,0,0.028-0.053,0-0.054c-3.391-0.038-6.795-0.184-10.184-0.081
						C497.131,231.73,497.131,231.938,497.244,231.941z M465.321,231.795c9.923,0.013,19.846,0.028,29.769-0.054
						c0.028,0,0.028-0.053,0-0.054c-9.923-0.081-19.845-0.067-29.769-0.054C465.236,231.634,465.236,231.794,465.321,231.795z
						 M466.398,233.494c13.546,0.025,27.092-0.012,40.638-0.054c0.057,0,0.057-0.107,0-0.107
						c-13.546-0.042-27.092-0.079-40.638-0.054C466.284,233.279,466.285,233.494,466.398,233.494z M464.733,243.319
						c13.84-0.018,27.68-0.036,41.52-0.054c0.085,0,0.085-0.161,0-0.161c-13.84-0.018-27.68-0.036-41.52-0.054
						C464.591,243.05,464.592,243.319,464.733,243.319z M466.496,246.132h40.639c0.085,0,0.085-0.161,0-0.161h-40.639
						C466.411,245.971,466.411,246.132,466.496,246.132z M508.701,240.163c-0.533,0.015-1.067,0.023-1.6,0.034
						c0.534,0.011,1.067,0.019,1.6,0.035C508.738,240.233,508.737,240.162,508.701,240.163z M492.404,240.197
						c4.9,0.058,9.802,0.104,14.697,0C502.207,240.093,497.304,240.139,492.404,240.197z M483.731,240.278
						c2.889-0.009,5.781-0.046,8.674-0.081c-2.893-0.034-5.785-0.071-8.674-0.081C483.645,240.116,483.646,240.278,483.731,240.278z
						 M480.401,240.282c-0.923,0.023-1.848,0.028-2.772,0.034c0.924,0.006,1.848,0.011,2.772,0.034
						C480.438,240.352,480.437,240.281,480.401,240.282z M474.743,240.317c0.962,0.007,1.925,0.006,2.887,0
						C476.667,240.311,475.705,240.31,474.743,240.317z M465.517,240.424c3.072-0.022,6.15-0.087,9.226-0.107
						c-3.076-0.021-6.154-0.085-9.226-0.107C465.403,240.208,465.403,240.425,465.517,240.424z M464.342,253.209
						c14.003-0.027,28.006-0.054,42.009-0.081c0.028,0,0.028-0.054,0-0.054c-14.003-0.027-28.006-0.054-42.009-0.08
						C464.228,252.993,464.228,253.209,464.342,253.209z M475.309,255.533c10.674-0.036,21.347-0.072,32.021-0.107
						c0.057,0,0.057-0.107,0-0.107c-10.674-0.036-21.348-0.072-32.021-0.107C475.139,255.21,475.139,255.533,475.309,255.533z
						 M467.279,255.506c1.869,0.05,3.714,0.044,5.582-0.054c0.085-0.005,0.085-0.157,0-0.161c-1.868-0.098-3.713-0.104-5.582-0.054
						C467.137,255.241,467.138,255.502,467.279,255.506z M467.279,260.829c13.253,0.024,26.505,0.084,39.757-0.054
						c0.028,0,0.028-0.053,0-0.054c-13.252-0.138-26.504-0.078-39.757-0.054C467.194,260.668,467.194,260.828,467.279,260.829z
						 M477.659,263.789h30.063c0.057,0,0.057-0.107,0-0.107h-30.063C477.602,263.681,477.603,263.789,477.659,263.789z
						 M470.021,263.869c1.73,0.045,3.46-0.036,5.19-0.081c0.057-0.001,0.057-0.106,0-0.107c-1.729-0.045-3.46-0.125-5.19-0.081
						C469.879,263.604,469.88,263.866,470.021,263.869z M465.321,263.869c0.751-0.018,1.501-0.036,2.252-0.054
						c0.085-0.002,0.085-0.159,0-0.161c-0.751-0.018-1.501-0.036-2.252-0.054C465.179,263.597,465.179,263.873,465.321,263.869z
						 M467.181,270.229c6.07-0.007,12.147-0.096,18.224-0.161c-6.077-0.066-12.154-0.154-18.224-0.161
						C467.011,269.906,467.011,270.229,467.181,270.229z M506.547,270.033c-0.722,0.016-1.444,0.022-2.165,0.034
						c0.722,0.012,1.444,0.019,2.165,0.034C506.583,270.103,506.583,270.032,506.547,270.033z M485.405,270.068
						c6.328,0.068,12.656,0.104,18.976,0C498.061,269.963,491.733,269.999,485.405,270.068z"/>
					<path style="opacity:0.5;fill:#ABA3FF;" d="M519.592,229.19c-2.249,0.009-4.499,0.018-6.748,0.027c-0.02,0-0.02,0.215,0,0.215
						c2.249,0.009,4.498,0.018,6.748,0.027C519.616,229.459,519.617,229.19,519.592,229.19z M514.122,231.726
						c-0.59-0.103-1.182,0.043-1.772,0.081c-0.005,0-0.005,0.053,0,0.054c0.59,0.038,1.182,0.184,1.772,0.081
						C514.142,231.938,514.142,231.73,514.122,231.726z M519.677,231.633c-1.727-0.013-3.453-0.028-5.18,0.054
						c-0.005,0-0.005,0.054,0,0.054c1.727,0.081,3.453,0.067,5.18,0.054C519.692,231.794,519.692,231.634,519.677,231.633z
						 M519.49,233.279c-2.357-0.025-4.714,0.012-7.071,0.054c-0.01,0-0.01,0.107,0,0.107c2.357,0.042,4.714,0.079,7.071,0.054
						C519.509,233.494,519.509,233.279,519.49,233.279z M519.779,243.05c-2.408,0.018-4.817,0.036-7.225,0.054
						c-0.015,0-0.015,0.161,0,0.161c2.408,0.018,4.817,0.036,7.225,0.054C519.804,243.319,519.804,243.05,519.779,243.05z
						 M519.472,245.971h-7.071c-0.015,0-0.015,0.161,0,0.161h7.071C519.487,246.132,519.487,245.971,519.472,245.971z
						 M512.128,240.232c0.093-0.015,0.186-0.023,0.278-0.035c-0.093-0.011-0.186-0.019-0.278-0.034
						C512.122,240.162,512.122,240.233,512.128,240.232z M512.407,240.197c0.852,0.104,1.705,0.058,2.557,0
						C514.112,240.139,513.258,240.093,512.407,240.197z M516.474,240.117c-0.503,0.009-1.006,0.046-1.509,0.081
						c0.503,0.034,1.006,0.071,1.509,0.081C516.488,240.278,516.488,240.116,516.474,240.117z M517.053,240.351
						c0.161-0.023,0.321-0.028,0.482-0.034c-0.161-0.006-0.322-0.011-0.482-0.034C517.047,240.281,517.047,240.352,517.053,240.351z
						 M517.535,240.317c0.167,0.006,0.335,0.007,0.502,0C517.87,240.31,517.703,240.311,517.535,240.317z M519.643,240.209
						c-0.535,0.022-1.07,0.087-1.605,0.107c0.535,0.021,1.071,0.085,1.605,0.107C519.663,240.425,519.663,240.208,519.643,240.209z
						 M519.847,252.994c-2.437,0.027-4.873,0.054-7.31,0.08c-0.005,0-0.005,0.054,0,0.054c2.437,0.027,4.873,0.054,7.31,0.081
						C519.867,253.209,519.867,252.993,519.847,252.994z M517.939,255.21c-1.857,0.036-3.715,0.072-5.572,0.107
						c-0.01,0-0.01,0.107,0,0.107c1.857,0.036,3.715,0.072,5.572,0.107C517.969,255.533,517.969,255.21,517.939,255.21z
						 M519.336,255.237c-0.325-0.05-0.646-0.044-0.971,0.054c-0.015,0.004-0.015,0.157,0,0.161c0.325,0.098,0.646,0.104,0.971,0.054
						C519.361,255.502,519.361,255.241,519.336,255.237z M519.336,260.667c-2.306-0.024-4.612-0.084-6.918,0.054
						c-0.005,0-0.005,0.053,0,0.054c2.306,0.138,4.612,0.078,6.918,0.054C519.351,260.828,519.351,260.668,519.336,260.667z
						 M517.53,263.681h-5.231c-0.01,0-0.01,0.107,0,0.107h5.231C517.54,263.789,517.54,263.681,517.53,263.681z M518.859,263.601
						c-0.301-0.045-0.602,0.036-0.903,0.081c-0.01,0.001-0.01,0.106,0,0.107c0.301,0.045,0.602,0.125,0.903,0.081
						C518.884,263.866,518.884,263.604,518.859,263.601z M519.677,263.601c-0.131,0.018-0.261,0.036-0.392,0.054
						c-0.015,0.002-0.015,0.159,0,0.161c0.131,0.018,0.261,0.036,0.392,0.054C519.702,263.873,519.702,263.597,519.677,263.601z
						 M519.353,269.906c-1.056,0.007-2.114,0.096-3.171,0.161c1.057,0.066,2.115,0.154,3.171,0.161
						C519.383,270.229,519.383,269.906,519.353,269.906z M512.503,270.102c0.125-0.016,0.251-0.022,0.377-0.034
						c-0.126-0.012-0.251-0.018-0.377-0.034C512.497,270.032,512.497,270.103,512.503,270.102z M512.88,270.068
						c1.1,0.104,2.201,0.068,3.302,0C515.081,269.999,513.98,269.963,512.88,270.068z"/>
				</g>
				<g>
					<path style="fill:#A2D9FF;" d="M564.5,269.327c-0.035-0.551-0.07-1.102-0.103-1.653c-0.51-8.363-0.842-16.739-0.996-25.119
						H521.31c0.114,6.2,0.324,12.398,0.633,18.589c-0.155,0.675-0.309,1.35-0.462,2.025c0.227,0.718,0.455,1.436,0.685,2.154
						c0.179,3.133,0.382,6.265,0.611,9.395c14.03,0,28.061,0,42.091,0c-0.102-1.391-0.198-2.782-0.29-4.173
						C564.552,270.139,564.526,269.733,564.5,269.327z"/>
					<path style="fill:#FDFDFD;" d="M556.747,269.327c-0.035-0.551-0.069-1.102-0.103-1.653c-0.51-8.363-0.842-16.739-0.996-25.119
						h-42.091c0.114,6.2,0.325,12.398,0.633,18.589c-0.155,0.675-0.309,1.35-0.462,2.025c0.227,0.718,0.455,1.436,0.685,2.154
						c0.179,3.133,0.382,6.265,0.611,9.395c14.03,0,28.061,0,42.091,0c-0.102-1.391-0.198-2.782-0.29-4.173
						C556.799,270.139,556.773,269.733,556.747,269.327z"/>
					<path style="fill:#A2D9FF;" d="M553.882,246.415c-12.971,0.337-26.014,0.263-38.985-0.081c-0.107-0.003-0.107-0.212,0-0.215
						c12.97-0.344,26.014-0.418,38.985-0.081C554.069,246.043,554.069,246.41,553.882,246.415z M538.649,248.067
						c-4.773,0.036-9.554,0.165-14.333,0.215c4.779,0.05,9.559,0.179,14.333,0.215C538.863,248.498,538.863,248.065,538.649,248.067
						z M515.692,248.316c0.737-0.017,1.474-0.026,2.211-0.035c-0.737-0.009-1.474-0.018-2.211-0.034
						C515.657,248.247,515.657,248.317,515.692,248.316z M517.902,248.282c2.137,0.025,4.275,0.022,6.414,0
						C522.178,248.26,520.04,248.257,517.902,248.282z M552.222,248.067c-3.73,0.039-7.46,0.089-11.19,0.134
						c-0.08,0.001-0.08,0.16,0,0.161c3.73,0.045,7.46,0.095,11.19,0.134C552.435,248.499,552.436,248.065,552.222,248.067z
						 M552.51,253.579c-12.407,0.02-24.851-0.309-37.252,0.188c-0.027,0.001-0.027,0.053,0,0.054
						c12.401,0.497,24.845,0.168,37.252,0.188C552.724,254.009,552.724,253.579,552.51,253.579z M523.272,255.941l-7.652,0.161
						c-0.027,0-0.027,0.053,0,0.054l7.652,0.161C523.459,256.321,523.459,255.937,523.272,255.941z M533.307,255.915
						c-2.864,0.045-5.727,0.089-8.591,0.134c-0.08,0.001-0.08,0.16,0,0.161c2.864,0.045,5.727,0.09,8.591,0.134
						C533.521,256.348,533.521,255.911,533.307,255.915z M553.16,255.541c-6.127,0.01-12.29-0.224-18.409,0.188
						c-0.027,0.002-0.027,0.052,0,0.054c6.119,0.412,12.283,0.178,18.409,0.188C553.374,255.971,553.374,255.54,553.16,255.541z
						 M556.409,263.135c-13.693,0.021-27.385,0.072-41.078,0.134c-0.053,0-0.054,0.107,0,0.108
						c13.693,0.063,27.385,0.113,41.078,0.134C556.596,263.511,556.596,263.135,556.409,263.135z M554.099,264.43
						c-12.587-0.038-25.171-0.105-37.757,0.08c-0.027,0.001-0.027,0.053,0,0.054c12.586,0.185,25.17,0.118,37.757,0.081
						C554.206,264.645,554.206,264.43,554.099,264.43z M521.612,268.62c-1.612,0.045-3.225,0.09-4.837,0.134
						c-0.08,0.002-0.08,0.159,0,0.161c1.612,0.045,3.225,0.09,4.837,0.134C521.825,269.056,521.826,268.614,521.612,268.62z
						 M554.676,267.779c-9.795,0.024-19.589,0.009-29.383,0.188c-0.027,0.001-0.027,0.053,0,0.054
						c9.794,0.179,19.588,0.164,29.383,0.188C554.89,268.21,554.89,267.779,554.676,267.779z"/>
					<path style="opacity:0.5;fill:#ABA3FF;" d="M562.329,246.201c-1.808,0-3.608-0.043-5.414-0.134
						c-0.027-0.001-0.027-0.052,0-0.054c1.807-0.092,3.606-0.134,5.414-0.134C562.489,245.878,562.489,246.201,562.329,246.201z
						 M561.679,247.467c-1.227,0.036-2.455,0.072-3.682,0.107c-0.053,0.002-0.053,0.106,0,0.107
						c1.227,0.036,2.455,0.072,3.682,0.107C561.839,247.794,561.839,247.462,561.679,247.467z M562.329,253.112
						c-1.519,0.021-3.031,0.094-4.548,0.188c-0.027,0.002-0.027,0.052,0,0.054c1.517,0.094,3.029,0.167,4.548,0.188
						C562.542,253.545,562.543,253.109,562.329,253.112z M561.751,255.275c-1.588,0.018-3.177,0.036-4.765,0.054
						c-0.054,0.001-0.054,0.107,0,0.107c1.588,0.018,3.177,0.036,4.765,0.054C561.858,255.491,561.858,255.273,561.751,255.275z
						 M560.596,257.583c-0.842,0.009-1.685,0.018-2.527,0.027c-0.107,0.001-0.107,0.214,0,0.215
						c0.842,0.009,1.685,0.018,2.527,0.027C560.73,257.853,560.73,257.582,560.596,257.583z M564.061,262.655
						c-1.709,0.009-3.417,0.018-5.126,0.027c-0.08,0-0.08,0.161,0,0.161c1.709,0.009,3.417,0.018,5.126,0.027
						C564.168,262.871,564.168,262.655,564.061,262.655z M561.751,265.03c-1.069-0.102-2.177,0.043-3.249,0.081
						c-0.08,0.003-0.08,0.158,0,0.161c1.071,0.037,2.18,0.182,3.249,0.081C561.911,265.337,561.911,265.046,561.751,265.03z
						 M564.061,269.168c-2.214,0.009-4.428,0.018-6.642,0.027c-0.107,0-0.107,0.215,0,0.215c2.214,0.009,4.428,0.018,6.642,0.027
						C564.195,269.437,564.195,269.167,564.061,269.168z"/>
				</g>
			</g>
			<g>
				<g>
					<path style="fill:#FFCF00;" d="M249.212,158.475c23.263-10.522,78.664,10.52,77.01,26.987
						c-1.643,16.366-21.672,25.386-40.895,37.018c-5.905-6.519-12.152-15.761-15.357-23.952c-0.367-0.938-0.72-1.941-0.54-2.933
						c0.18-0.988-2.839-6.253-1.873-6.527c13.464-3.822,27.65-3.902,27.65-3.902s-31.203-11.084-41.368-5.672"/>
				</g>
				<g style="opacity:0.52;">
					<path style="fill:#EECF00;" d="M316.507,195.641c-11.173,8.597-25.978,10.825-36.579,20.221c1.768,2.387,3.6,4.63,5.4,6.618
						c19.223-11.631,39.252-20.652,40.895-37.018c0.027-0.27,0.037-0.542,0.034-0.814
						C323.99,188.848,320.449,192.607,316.507,195.641z"/>
				</g>
				<g>
					<path style="fill:#FFCF00;" d="M239.048,157.793c-16.505-0.563-80.727,11.569-68.767,43.886
						c5.709,15.426,33.967,22.82,56.033,27.049c3.272-8.164,5.921-19.001,6.081-27.795c0.018-1.007,0.001-2.071-0.513-2.938
						c-0.512-0.864,4.797-8.49,3.796-8.411c-13.954,1.093-31.451,2.873-31.451,2.873s27.949-14.099,39.361-12.555"/>
				</g>
				<g style="opacity:0.52;">
					<path style="fill:#EECF00;" d="M220.384,214.57c-13.247-0.166-28.198-0.827-38.946-9.502c-4.55-3.672-8.048-8.803-9.056-14.626
						c-0.464-2.68-0.364-5.329,0.19-7.88c-3.765,5.374-5.031,11.715-2.291,19.117c5.709,15.426,33.967,22.82,56.033,27.049
						c1.823-4.548,3.451-9.925,4.564-15.316C227.519,214.37,223.905,214.615,220.384,214.57z"/>
				</g>
				<path style="fill:#120089;" d="M255.617,168.593c-0.067,2.029,0.623,4.1,2.005,5.587c1.382,1.487,3.463,2.337,5.48,2.102
					s3.893-1.608,4.605-3.509c0.546-1.457,0.409-3.087,0.036-4.598c-0.522-2.117-1.576-4.215-3.404-5.403
					C259.921,159.901,255.76,164.248,255.617,168.593z"/>
				<g>
					<path style="fill:#0A104C;" d="M386.184,427.524c-4.25-1.204-8.679-1.431-13.047-0.67c-0.468,0.081-0.978,0.204-1.301,0.687
						c-0.264,0.394-0.344,0.944-0.406,1.464c-0.429,3.616-0.508,7.288-0.233,10.889c0.151,1.977,0.333,5.242,1.605,6.158
						c0.628,0.452,50.701,3.176,47.539-0.587c-2.349-2.796-12.305-8.139-15.464-9.453c-4.439-1.846-8.878-3.693-13.317-5.539
						L386.184,427.524z"/>
				</g>
				<g>
					<path style="fill:#FF9F85;" d="M367.512,415.084c0.742,2.474,5.129,14.447,5.129,14.447s14.469,4.05,18.615,1.51
						c0.651-0.399-0.852-2.362-1.292-3.982c-0.948-3.491-2.285-7.889-3.373-13.12"/>
				</g>
				<g>
					<path style="fill:#0A104C;" d="M312.399,429.366c3.718,4.189,15.92,11.485,15.92,16.034c0,4.549-24.726,5.354-30.581,0.506
						c-4.5-3.726-0.623-14.413,0.093-16.048L312.399,429.366z"/>
				</g>
				<g>
					<path style="fill:#FF9F85;" d="M294.059,414.614c-0.099,2.79,3.565,14.594,4.377,17.264c2.032,6.681,18.446,5.953,14.744-0.446
						c-0.481-0.832-1.96-15.194-2.073-17.492"/>
				</g>
				<g>
					<path style="fill:#0057F3;" d="M235.844,299.118c-0.658,7.215-2.506,11.956-1.493,19.13
						c2.179,15.443,14.158,19.201,17.731,19.457c8.13,0.581,16.294,0.701,24.437,0.36c2.368-0.099,4.838-0.268,6.877-1.475
						c3.249-1.924,4.573-6.03,4.577-9.805c0.006-5.675-2.324-11.073-4.858-16.151c-2.636-5.281,2.788-11.799-2.433-14.552
						c-3.42-1.803-15.974-1.173-19.821-1.559c-8.41-0.844-17.654-1.278-24.49,3.693"/>
				</g>
				<g style="opacity:0.35;">
					<path style="fill:#3157F3;" d="M286.828,319.53c-5.486,2.927-11.403,4.984-17.644,5.786c-6.52,0.837-14.249,0.608-20.229-2.416
						c-4.721-2.387-10.237-6.87-10.874-12.501c-0.231,0.073-0.5-0.006-0.561-0.311c-0.324-1.613-1.351-2.959-2.629-4.097
						c-0.647,3.956-1.198,7.594-0.54,12.258c2.18,15.443,14.158,19.201,17.731,19.457c8.13,0.581,16.294,0.701,24.437,0.36
						c2.368-0.099,4.838-0.268,6.877-1.475c3.249-1.924,4.573-6.03,4.577-9.805C287.977,324.313,287.536,321.893,286.828,319.53z"/>
				</g>
				<g>
					<path style="fill:#120089;" d="M362.424,306.965c-11.064-11.321-30.961-15.925-49.872-13.084l-11.209-3.51
						c-0.024,1.642-0.029,3.285-0.03,4.927c0,0.606-0.94,0.605-0.94,0c0-1.741,0.008-3.481,0.038-5.219l-11.605-3.634
						l-16.353,16.117c-3.758,11.999-0.69,25.165,10.799,30.272c6.512,2.895,18.914,3.802,52.358,3.802
						c-2.871,21.858,27.574,80.999,28.496,81.709c0.866,0.667,20.455,0.945,27.221,0.033
						C391.327,418.377,373.487,318.286,362.424,306.965z"/>
				</g>
				<g style="opacity:0.51;">
					<path style="fill:#120089;" d="M369.897,405.23c-4.516-9.033-7.242-18.847-9.621-28.622
						c-3.364-13.822-4.846-28.134-11.816-40.807c-1.758-3.197-4.03-6.249-7.548-7.582c-3.395-1.286-7.058-1.636-10.651-1.896
						c-5.871-0.425-12.539-0.371-17.604-3.807c-8.34-5.657-11.48-17.491-12.283-26.968c-0.005-0.06,0.006-0.11,0.019-0.158
						c-0.006-0.031-0.019-0.057-0.019-0.093c0-1.741,0.008-3.481,0.038-5.219l-11.605-3.634l-16.353,16.117
						c-3.758,11.999-0.69,25.165,10.799,30.272c6.512,2.895,18.914,3.802,52.358,3.802c-2.871,21.858,27.574,80.999,28.496,81.709
						c0.535,0.412,8.222,0.676,15.613,0.601C375.645,415.124,372.418,410.273,369.897,405.23z"/>
				</g>
				<g>
					<path style="fill:#FFCF00;" d="M327.043,292.925c-16.544-8.992-27.671-34.7-32.747-48.568
						c-5.001-13.662-8.682-23.939-12.884-37.864c-2.549-8.446-5.601-14.927-13.853-18.382c-4.549-1.905-7.187-2.966-15.538-2.817
						c-11.094,0.198-26.618,8.553-30.038,13.915c-32.125,50.377,3.955,120.612,10.438,129.179c0,0,31.414-46.011,58.495-28.614
						c0,0-3.555-12.643-3.452-11.421s8.925,10.158,8.925,10.158L327.043,292.925z"/>
				</g>
				<g style="opacity:0.52;">
					<path style="fill:#EECF00;" d="M327.043,292.925c-6.567-3.569-12.277-9.776-17.097-16.827c-0.507,0.17-1.014,0.34-1.524,0.502
						c-5.839,1.859-11.751,3.538-17.679,5.093c-10.592,2.778-21.482,4.881-32.465,3.613c-5.269-0.608-10.232-2.079-15.198-3.89
						c-4.44-1.619-8.883-3.36-12.969-5.759c-14.099-8.276-18.476-25.598-20.48-41.077c-5.29,42.997,17.736,87.13,22.788,93.807
						c0,0,31.414-46.011,58.495-28.614c0,0-2.384-8.478-3.19-10.876c1.427,2.279,8.663,9.612,8.663,9.612L327.043,292.925z"/>
				</g>
				<g>
					<path style="fill:#FFFFFF;" d="M264.453,186.872c1.831,13.426,4.521,44.54,4.539,57.149
						c-3.575-5.704-24.449-46.817-27.525-56.683C241.466,187.338,251.771,182.779,264.453,186.872z"/>
				</g>
				<g>
					<path style="fill:#EAEDFF;" d="M265.132,208.097c-1.113,5.21-3.451,10.785-7.748,13.843
						c5.217,10.404,10.052,19.598,11.608,22.081c-0.012-8.814-1.337-27.608-2.76-42.711
						C265.947,203.594,265.608,205.869,265.132,208.097z"/>
				</g>
				<g>
					<path style="fill:#FF8C76;" d="M242.582,178.558c1.444,4.567,1.072,8.12,2.713,11.094c0.153,0.277,5.304,5.632,13.03,2.799
						c5.997-2.199,0.896-9.04,1.441-11.712"/>
				</g>
				<g style="opacity:0.4;">
					<path style="fill:#FF8C76;" d="M254.71,187.979c2.231,0.221,4.402-0.054,6.467-0.701c-0.372-2.473-1.703-5.106-1.411-6.54
						l-17.184-2.181c0.438,1.386,0.702,2.669,0.913,3.881C246.138,185.7,250.659,187.577,254.71,187.979z"/>
				</g>
				<g>
					<path style="fill:#FF9F85;" d="M259.037,156.707c4.254,5.74,5.155,13.33,3.845,20.352c-0.938,5.03-5.498,9.288-13.67,6.58
						c-3.102-1.027-6.484-3.394-8.055-6.259c-1.084-1.976-4.818-3.978-3.208-8.075C239.558,165.209,259.037,156.707,259.037,156.707
						z"/>
				</g>
				<path style="fill:#0A104C;" d="M252.108,173.498c-0.897,0-1.895-0.552-2.292-1.726c-0.083-0.246,0.049-0.513,0.295-0.595
					c0.245-0.085,0.512,0.049,0.595,0.295c0.292,0.867,1.029,1.16,1.589,1.071c0.227-0.037,0.756-0.199,0.756-0.895
					c0-0.259,0.21-0.47,0.47-0.47c0.259,0,0.47,0.21,0.47,0.47c0,0.953-0.605,1.669-1.543,1.822
					C252.338,173.489,252.224,173.498,252.108,173.498z M261.279,172.45c0.878-0.14,1.492-0.794,1.491-1.59
					c0-0.26-0.211-0.47-0.47-0.47c-0.26,0-0.47,0.211-0.47,0.47c0,0.38-0.351,0.606-0.699,0.662
					c-0.436,0.067-1.022-0.097-1.25-0.791c-0.08-0.245-0.344-0.38-0.593-0.3c-0.246,0.081-0.381,0.346-0.3,0.593
					c0.336,1.027,1.174,1.453,1.955,1.453C261.057,172.476,261.17,172.467,261.279,172.45z M257.808,179.777
					c0.128-0.226,0.049-0.513-0.176-0.641c-0.226-0.13-0.513-0.05-0.641,0.176c-0.273,0.481-0.826,0.824-1.38,0.79
					c-0.553-0.008-1.098-0.341-1.357-0.828c-0.122-0.229-0.408-0.318-0.636-0.194c-0.229,0.122-0.316,0.407-0.194,0.636
					c0.422,0.793,1.275,1.313,2.174,1.327c0.011,0,0.022,0,0.033,0C256.517,181.042,257.369,180.548,257.808,179.777z"/>
				<g>
					<path style="fill:#0A104C;" d="M244.675,165.212c-1.047,1.824-0.903,3.985,0.522,6.755c-1.104-1.451-3.005-3.075-4.902-0.875
						c-1.897,2.201,0.657,5.656,1.829,7.805c-0.807,0.683-5.444-5.378-6.273-7.058c-1.467-2.975-2.799-6.196-2.495-9.499
						c0.304-3.303,2.775-6.629,6.088-6.79c0.678-0.033,1.424,0.046,1.971-0.358c0.346-0.255,0.542-0.66,0.759-1.031
						c1.393-2.377,4.057-3.792,6.767-4.289c2.71-0.497,5.729,0.363,8.285,1.392c4.716,1.897,11.126,6.147,9.374,10.954
						c-0.719,1.973-6.493,4.533-9.457,5.047c-2.965,0.514-6.108,0.656-8.894-0.48C245.463,165.65,244.675,165.212,244.675,165.212z"
						/>
				</g>
				<g style="opacity:0.48;">
					<path style="fill:#0A104C;" d="M250.447,162.592c-3.348-0.34-6.714-1.162-9.791-2.54c-1.567-0.702-3.469-1.69-4.487-3.175
						c-1.574,1.303-2.622,3.386-2.813,5.462c-0.304,3.303,1.029,6.524,2.495,9.499c0.828,1.68,5.466,7.741,6.273,7.058
						c-1.172-2.149-3.726-5.605-1.829-7.805c1.897-2.201,3.798-0.577,4.902,0.874c-1.425-2.77-1.569-4.931-0.522-6.755
						c0,0,0.788,0.438,3.574,1.574c2.786,1.136,5.929,0.994,8.894,0.48c2.964-0.514,8.738-3.073,9.457-5.047
						c0.479-1.316,0.333-2.587-0.208-3.782C261.926,161.82,256.344,163.192,250.447,162.592z"/>
				</g>
				<g>
					<path style="fill:#E58F00;" d="M264.453,186.872c1.658,0.466,6.747,2.238,8.358,3.716c0.148,0.136,0.301,0.286,0.345,0.482
						c0.066,0.295-0.135,0.577-0.324,0.813c-1.646,2.054-3.292,4.107-4.938,6.161c1.543,0.752,3.086,1.504,4.629,2.256
						c0.17,0.083,0.357,0.185,0.412,0.365c0.046,0.15-0.014,0.31-0.073,0.455c-0.6,1.481-2.027,27.691-3.87,42.9L264.453,186.872z"
						/>
				</g>
				<g>
					<path style="fill:#0057F3;" d="M272.078,297.17c23.637-8.562,30.348,29.836,32.71,39.739
						c4.704,19.723,14.092,86.042,11.714,90.528c-1.808,3.41-23.118,5.327-23.782,2.916
						C282.631,393.745,239.69,308.902,272.078,297.17z"/>
				</g>
				<g style="opacity:0.35;">
					<path style="fill:#3157F3;" d="M314.8,417.024c-14.035-9.908-23.129-26.095-30.918-40.996
						c-5.19-9.929-9.765-20.171-13.939-30.566c-3.625-9.027-8.317-18.377-9.697-28.132c-1.394,30.437,24.87,85.429,32.474,113.023
						c0.664,2.411,21.974,0.495,23.782-2.916c0.474-0.893,0.48-4.244,0.15-9.185C316.027,417.858,315.408,417.453,314.8,417.024z"/>
				</g>
				<path style="fill:#D67900;" d="M277.752,266.423c-3.25-7.22-7.518-14.694-8.717-22.593c-0.013-0.089-0.165-0.073-0.159,0.018
					c0.247,3.416,1.413,6.609,2.74,9.74c1.621,3.826,3.329,7.616,5.018,11.412c1.705,3.83,3.423,7.654,5.148,11.475
					c1.714,3.796,3.259,7.765,5.254,11.421c0.097,0.178,0.416,0.064,0.341-0.137C284.677,280.495,280.934,273.493,277.752,266.423z"
					/>
				<path style="fill:#0F006F;" d="M338.763,328.892c-1.543,2.196-2.599,5.093-2.847,7.761c-0.029,0.307,0.44,0.35,0.523,0.071
					c0.773-2.617,1.553-5.209,2.368-7.814C338.816,328.883,338.778,328.87,338.763,328.892z"/>
				<path style="fill:none;stroke:#FFFFFF;stroke-width:0;stroke-linecap:round;stroke-linejoin:round;" d="M271.447,213.318
					c0.004-0.001,0.003-0.008-0.002-0.007"/>
				<path style="fill:#FF9D8C;" d="M247.864,173.43c-0.112-0.011-0.196,0.018-0.268,0.062c-0.027-0.284-0.031-0.57,0.003-0.853
					c0.057-0.486,0.325-0.992,0.165-1.474c-0.025-0.074-0.123-0.061-0.133,0.015c-0.071,0.557-0.478,1.085-0.568,1.663
					c-0.07,0.447-0.087,0.924,0.03,1.365c0.121,0.456,0.701,1.187,1.184,0.629C248.586,174.478,248.405,173.484,247.864,173.43z"/>
				<g>
					<path style="fill:#3157F3;" d="M242.529,173.24c-0.55,0.301-1.254,0.207-1.703-0.27c-1.831-1.942-3.896-9.18-1.778-15.177
						c1.293-3.659,6.269-8.875,13.319-8.837c2.495,0.013,4.14,1.299,4.246,2.07c-1.084-0.145-3.272,0.022-4.046,0.129
						c-5.706,0.78-9.361,3.33-10.861,7.577c-1.834,5.192,0.172,11.244,1.171,12.304c0.534,0.566,0.508,1.459-0.059,1.993
						C242.73,173.113,242.632,173.184,242.529,173.24z"/>
				</g>
				<g>
					<path style="fill:#E58F00;" d="M241.466,187.338c-3.316,2.226-6.333,5.923-8.617,9.199c2.949,0.013,5.896,0.349,8.773,1
						c-0.663,1.76-1.325,3.52-1.988,5.28c-0.094,0.251-0.189,0.529-0.093,0.779c0.085,0.22,0.296,0.36,0.494,0.486
						c4.721,3.013,24.562,37.516,28.957,39.938L241.466,187.338z"/>
				</g>
				<path style="fill:#D67900;" d="M268.711,282.613c-1.163-2.393-2.399-4.75-3.704-7.07c-0.434-0.772-1.069-2.627-1.989-3.049
					c-1.675-0.769-5.411,2.368-6.715,2.968c-5.141,2.363-10.499,3.856-16.09,4.657c-0.601,0.086-0.353,1.021,0.254,0.921
					c5.34-0.887,10.508-2.406,15.406-4.726c1.211-0.574,2.397-1.2,3.562-1.863c1.971-1.122,2.986-1.432,4.759,0.541
					c1.963,2.185,3.283,5.998,4.52,8.643c1.062,2.269,2.454,3.841,0.256,6.263c-0.833,0.918-2.756,1.475-3.839,1.996
					c-3.323,1.599-6.866,3.062-10.446,4.006c-5.353,1.41-9.316-1.233-11.379-6.113c-1.258-2.975-2.413-5.999-3.619-8.996
					c-0.07-0.173-0.353-0.098-0.283,0.078c1.979,4.963,3.859,15.383,10.509,16.063c4.045,0.414,8.591-1.745,12.215-3.253
					c2.172-0.904,7.318-2.254,8.38-4.498C271.496,287.09,269.569,284.377,268.711,282.613z"/>
				<path style="fill:#D67900;" d="M308.059,278.382c-2.335,2.731-5.287,4.745-8.873,5.455c-5.671,1.124-7.181-1.742-9.274-6.326
					c-1.474-3.228-4.987-7.776-1.368-10.393c2.843-2.056,7.784-3.166,11.032-4.488c0.085-0.035,0.052-0.173-0.039-0.142
					c-4.437,1.557-10.476,2.602-14.38,5.215c-0.117,0.078-0.238,0.225-0.218,0.379c0.449,3.369,2.86,6.763,4.29,9.827
					c1.001,2.144,1.881,5.031,4.102,6.271c4.992,2.786,12.044-1.698,15.142-5.383C308.715,278.51,308.306,278.093,308.059,278.382z"
					/>
				<path style="fill:#120089;" d="M318.841,275.281c-7.997,0.583-14.141-1.121-20.295-6.279c-4.718-3.954-8.53-8.854-11.543-14.207
					c-3.257-5.788-5.55-12.088-7.145-18.523c-1.349-5.443-2.416-10.817-3.885-16.372c0.607-0.324,0.837-1.097,0.484-1.708
					c-0.233-0.403-0.697-0.685-1.137-0.692c-0.633-9.059-4.537-31.956-11.471-46.682c-0.02-0.043-0.227,0.083-0.209,0.126
					c6.305,14.853,9.315,32.975,11.281,46.74c-0.021,0.017-0.222,0.05-0.242,0.07c-0.456-0.839-1.021-1.758-1.104-1.87
					c-1.303-1.742-2.802-3.326-4.366-4.834c-3.003-2.896-6.318-5.414-9.438-8.174c-7.335-6.49-13.394-14.58-15.893-24.02
					c-0.012-0.046-0.432,0.049-0.421,0.095c2.302,9.355,8.482,17.105,15.287,23.916c3.456,3.458,11.103,7.611,15.487,15.121
					c-0.457,0.318-0.266,1.09-0.159,1.286c0.332,0.608,1.147,0.915,1.593,0.749c0.006-0.002,2.742,13.707,4.74,20.444
					c1.923,6.487,4.675,12.755,8.452,18.382c3.163,4.714,7.026,9.055,11.503,12.556c2.002,1.566,4.15,3.178,6.611,3.943
					c3.719,1.155,7.824,0.851,11.627,1.735C319.957,277.4,320.132,275.186,318.841,275.281z"/>
				<path style="fill:#D67900;" d="M213.769,215.83c-1.232,2.988-2.589,6.234-2.903,9.476c-0.036,0.372,0.568,0.38,0.587,0
					c0.166-3.174,1.385-6.47,2.457-9.437C213.943,215.779,213.804,215.745,213.769,215.83z"/>
				<path style="fill:#D67900;" d="M239.302,318.962c-6.969-12.903-13.003-25.793-16.581-40.094
					c-3.541-14.154-5.204-28.567-4.677-43.155c0.005-0.142-0.212-0.141-0.22,0c-1.663,28.655,4.741,59.48,20.781,83.656
					C238.891,319.801,239.551,319.423,239.302,318.962z"/>
				<path style="fill:#D67900;" d="M286.387,221.904c-1.539-3.489-2.525-7.104-2.979-10.89c-0.011-0.092-0.155-0.095-0.147,0
					c0.336,3.836,1.215,7.515,2.656,11.088C286.055,222.444,286.538,222.248,286.387,221.904z"/>
				<path style="fill:#D67900;" d="M300.431,186.459c-1.91-0.851-3.937-1.443-5.954-1.981c-0.14-0.037-0.188,0.162-0.059,0.212
					c1.909,0.741,3.737,1.634,5.605,2.466C300.494,187.366,300.906,186.67,300.431,186.459z"/>
				<path style="fill:#D67900;" d="M204.744,191.321c-1.881,1.238-3.762,2.475-5.643,3.713c-0.118,0.077-0.014,0.26,0.111,0.19
					c1.967-1.09,3.935-2.18,5.902-3.269C205.529,191.725,205.139,191.061,204.744,191.321z"/>
				<path style="fill:#3157F3;" d="M235.242,171.985c-0.067,2.029,0.623,4.1,2.005,5.587c1.382,1.487,3.463,2.337,5.48,2.102
					s3.893-1.608,4.605-3.509c0.546-1.457,0.409-3.087,0.036-4.598c-0.522-2.117-1.576-4.215-3.404-5.403
					C239.546,163.293,235.385,167.639,235.242,171.985z"/>
				<path style="opacity:0.35;fill:#3157F3;" d="M240.918,175.625c-2.32-1.828-4.059-4.437-4.574-7.325
					c-0.655,1.103-1.06,2.392-1.102,3.685c-0.067,2.029,0.623,4.1,2.005,5.588c1.382,1.487,3.463,2.337,5.48,2.102
					c1.502-0.176,2.924-0.983,3.848-2.168C244.58,177.532,242.69,177.021,240.918,175.625z"/>
				<path style="fill:#0F00C9;" d="M262.309,337.559c-1.303-4.085-1.665-9.79-1.881-14.074c-0.007-0.141-0.221-0.143-0.22,0
					c0.02,4.338,0.195,10.1,1.323,14.288C261.665,338.276,262.467,338.055,262.309,337.559z"/>
			</g>
			<g>
				<g>
					<path style="fill:#010C87;" d="M481.047,337.534H315.209c-2.076,0-3.76-1.683-3.76-3.76c0-2.076,1.683-3.76,3.76-3.76h165.838
						c2.076,0,3.76,1.683,3.76,3.76C484.806,335.85,483.123,337.534,481.047,337.534z"/>
				</g>
				<g style="opacity:0.26;">
					<path style="fill:#010C87;" d="M481.047,330.014H344.055c1.015,2.493,1.994,5.001,2.945,7.519h134.047
						c2.076,0,3.76-1.683,3.76-3.76C484.806,331.698,483.123,330.014,481.047,330.014z"/>
				</g>
				<g>
					<path style="fill:#1200C3;" d="M396.757,445.951c-1.882,0-3.659-1.138-4.382-2.999l-57.222-147.299l-60.569,147.383
						c-0.986,2.401-3.733,3.545-6.133,2.561c-2.401-0.987-3.547-3.733-2.56-6.133l65.039-158.259
						c0.725-1.764,2.443-2.913,4.346-2.913c0.016,0,0.031,0,0.046,0c1.922,0.019,3.639,1.206,4.335,2.998l61.479,158.259
						c0.94,2.42-0.259,5.143-2.679,6.083C397.899,445.848,397.324,445.951,396.757,445.951z"/>
				</g>
				<g>
					<path style="fill:#1200C3;" d="M343.608,291.457l-3.95-10.167c-0.696-1.792-2.413-2.979-4.335-2.998h-0.046
						c-1.904,0-3.621,1.149-4.346,2.913l-4.213,10.252H343.608z"/>
				</g>
				<g>
					<path style="fill:#1200C3;" d="M521.903,337.534H356.065c-2.076,0-3.76-1.683-3.76-3.76c0-2.076,1.683-3.76,3.76-3.76h165.838
						c2.076,0,3.76,1.683,3.76,3.76C525.663,335.85,523.98,337.534,521.903,337.534z"/>
				</g>
			</g>
			<path style="fill:#CE551D;" d="M576.894,283.318H275.462c-2.375,0-4.299-1.925-4.299-4.299v0c0-2.375,1.925-4.299,4.299-4.299
				h301.432c2.375,0,4.299,1.925,4.299,4.299v0C581.194,281.393,579.269,283.318,576.894,283.318z"/>
			<path style="fill:#F97B1D;" d="M398.533,283.318h-123.07c-2.375,0-4.299-1.925-4.299-4.299v0c0-2.375,1.925-4.299,4.299-4.299
				h123.07c2.375,0,4.299,1.925,4.299,4.299v0C402.832,281.393,400.907,283.318,398.533,283.318z"/>
			<g>
				<path style="fill:#A2D9FF;" d="M381.166,219.515h44.867c0.779,0,1.267,0.842,0.88,1.518l-28.589,51.582
					c-0.719,1.298-2.086,2.103-3.57,2.103h-44.252L381.166,219.515z"/>
				<path style="fill:#A2D9FF;" d="M394.139,271.109c-5.732-2.403-10.199-6.51-13.302-11.874
					c-4.908-8.483-6.729-18.198-6.256-27.866l-24.079,43.349h44.251c1.484,0,2.85-0.805,3.57-2.103l0.037-0.066
					C396.929,272.152,395.517,271.687,394.139,271.109z"/>
				<g>
					<path style="fill:#3157F3;" d="M350.369,274.719h-53.032c-0.936,0-1.804-0.64-1.955-1.564
						c-0.192-1.178,0.713-2.196,1.854-2.196h50.986c0.9,0,1.734-0.476,2.192-1.251l29.093-49.271c0.58-0.983,1.915-1.243,2.833-0.48
						c0.72,0.598,0.831,1.67,0.355,2.476l-30.135,51.036C352.102,274.243,351.269,274.719,350.369,274.719z"/>
				</g>
				<path style="fill:#3157F3;" d="M388.395,244.001c-2.932,3.278-3.412,7.633-1.071,9.727c2.341,2.093,6.615,1.133,9.547-2.146
					c2.932-3.278,3.412-7.633,1.071-9.727C395.602,239.762,391.328,240.722,388.395,244.001z"/>
			</g>
			<g>
				<g>
					<path style="fill:#3400FF;" d="M434.753,272.79h2.156c1.622,0,2.937-1.315,2.937-2.936v-45.088
						c0-1.622-1.315-2.937-2.937-2.937h-2.156c-1.622,0-2.937,1.315-2.937,2.937v45.088
						C431.817,271.475,433.132,272.79,434.753,272.79z"/>
					<g>
						<defs>
							<path id="SVGID_1_" d="M434.753,272.79h2.156c1.622,0,2.937-1.315,2.937-2.936v-45.088c0-1.622-1.315-2.937-2.937-2.937
								h-2.156c-1.622,0-2.937,1.315-2.937,2.937v45.088C431.817,271.475,433.132,272.79,434.753,272.79z"/>
						</defs>
						<clipPath id="SVGID_00000176734142973686427670000015685206732711213969_">
							<use xlink:href="#SVGID_1_"  style="overflow:visible;"/>
						</clipPath>
						<path style="clip-path:url(#SVGID_00000176734142973686427670000015685206732711213969_);fill:#FFFFFF;" d="M437.257,226.534
							c0-0.143,0.115-0.258,0.258-0.258h2.331c0.143,0,0.258,0.116,0.258,0.258c0,0.143-0.115,0.258-0.258,0.258h-2.331
							C437.373,226.792,437.257,226.677,437.257,226.534z M437.515,230.562h2.331c0.143,0,0.258-0.115,0.258-0.258
							c0-0.143-0.115-0.258-0.258-0.258h-2.331c-0.143,0-0.258,0.116-0.258,0.258C437.257,230.446,437.373,230.562,437.515,230.562z
							 M437.515,234.331h2.331c0.143,0,0.258-0.116,0.258-0.258c0-0.143-0.115-0.258-0.258-0.258h-2.331
							c-0.143,0-0.258,0.115-0.258,0.258C437.257,234.215,437.373,234.331,437.515,234.331z M437.515,238.1h2.331
							c0.143,0,0.258-0.116,0.258-0.258c0-0.143-0.115-0.258-0.258-0.258h-2.331c-0.143,0-0.258,0.115-0.258,0.258
							C437.257,237.985,437.373,238.1,437.515,238.1z M437.515,241.869h2.331c0.143,0,0.258-0.116,0.258-0.258
							s-0.115-0.258-0.258-0.258h-2.331c-0.143,0-0.258,0.116-0.258,0.258S437.373,241.869,437.515,241.869z M437.515,245.639h2.331
							c0.143,0,0.258-0.115,0.258-0.258s-0.115-0.258-0.258-0.258h-2.331c-0.143,0-0.258,0.115-0.258,0.258
							S437.373,245.639,437.515,245.639z M437.515,249.408h2.331c0.143,0,0.258-0.115,0.258-0.258c0-0.143-0.115-0.258-0.258-0.258
							h-2.331c-0.143,0-0.258,0.115-0.258,0.258C437.257,249.293,437.373,249.408,437.515,249.408z M437.515,253.177h2.331
							c0.143,0,0.258-0.115,0.258-0.258c0-0.143-0.115-0.258-0.258-0.258h-2.331c-0.143,0-0.258,0.115-0.258,0.258
							C437.257,253.062,437.373,253.177,437.515,253.177z M437.515,256.947h2.331c0.143,0,0.258-0.115,0.258-0.258
							c0-0.143-0.115-0.258-0.258-0.258h-2.331c-0.143,0-0.258,0.116-0.258,0.258C437.257,256.831,437.373,256.947,437.515,256.947z
							 M437.515,260.716h2.331c0.143,0,0.258-0.116,0.258-0.258c0-0.143-0.115-0.258-0.258-0.258h-2.331
							c-0.143,0-0.258,0.115-0.258,0.258C437.257,260.6,437.373,260.716,437.515,260.716z M437.515,264.485h2.331
							c0.143,0,0.258-0.115,0.258-0.258s-0.115-0.258-0.258-0.258h-2.331c-0.143,0-0.258,0.115-0.258,0.258
							S437.373,264.485,437.515,264.485z M437.515,268.254h2.331c0.143,0,0.258-0.115,0.258-0.258c0-0.143-0.115-0.258-0.258-0.258
							h-2.331c-0.143,0-0.258,0.115-0.258,0.258C437.257,268.139,437.373,268.254,437.515,268.254z"/>
					</g>
				</g>
				<g>
					<g>
						
							<rect x="428.784" y="246.842" transform="matrix(-0.9763 0.2165 -0.2165 -0.9763 906.1724 411.4572)" style="fill:#CE551D;" width="3.527" height="17.051"/>
						<path style="opacity:0.65;fill:#FFFFFF;" d="M429.694,232.344c3.644,1.692,5.227,6.018,3.535,9.662
							c-1.692,3.644-6.018,5.227-9.662,3.535c-3.645-1.692-5.227-6.018-3.535-9.662C421.724,232.235,426.05,230.653,429.694,232.344
							z"/>
						<path style="fill:#CE551D;" d="M430.252,231.144c-4.307-2-9.421-0.129-11.421,4.179c-2,4.308-0.129,9.421,4.179,11.421
							c4.308,2,9.421,0.129,11.421-4.178C436.43,238.257,434.559,233.144,430.252,231.144z M433.229,242.007
							c-1.692,3.644-6.018,5.227-9.662,3.535c-3.645-1.692-5.227-6.018-3.535-9.662c1.692-3.644,6.018-5.227,9.662-3.535
							C433.339,234.036,434.921,238.362,433.229,242.007z"/>
					</g>
				</g>
				<g>
					
						<rect x="432.994" y="267.3" transform="matrix(0.9859 0.1672 -0.1672 0.9859 51.103 -69.0185)" style="fill:#FFFFFF;stroke:#000000;stroke-width:0.6429;stroke-miterlimit:10;" width="5.031" height="3.468"/>
					<path style="fill:#FFFFFF;stroke:#000000;stroke-width:0.6429;stroke-miterlimit:10;" d="M435.885,273.636l-2.247-0.381
						c-0.749-0.127-1.253-0.837-1.126-1.586l0.228-1.346l4.96,0.841l-0.228,1.346C437.345,273.259,436.634,273.763,435.885,273.636z
						"/>
					<path style="fill:#FF9F85;" d="M442.135,228.233l-2.934,3.985l4.96,0.841l-1.456-4.729
						C442.634,228.099,442.278,228.038,442.135,228.233z"/>
					<path style="fill:#3400FF;" d="M442.705,228.33l0.576,1.871l-2.307-0.391l1.16-1.576
						C442.278,228.038,442.634,228.099,442.705,228.33z"/>
					
						<rect x="436.19" y="232.388" transform="matrix(0.9859 0.1672 -0.1672 0.9859 47.9974 -69.818)" style="fill:#D32F1D;" width="5.031" height="35.598"/>
					
						<rect x="437.468" y="232.388" transform="matrix(0.9859 0.1672 -0.1672 0.9859 48.0122 -69.836)" style="fill:#EECF00;" width="2.475" height="35.599"/>
				</g>
				<path style="fill:#0057F3;" d="M442.969,271.8l1.064-19.647c0.054-0.991-0.712-1.825-1.675-1.825h-16.51
					c-0.963,0-1.728,0.831-1.675,1.822c0.281,5.185,1.064,19.649,1.064,19.649c0.089,1.637,1.403,2.918,2.994,2.918h11.744
					C441.566,274.719,442.88,273.438,442.969,271.8z"/>
				<path style="opacity:0.35;fill:#3157F3;" d="M432.981,270.358c-5.092-4.885-8.034-11.936-8.686-18.95
					c-0.09,0.228-0.137,0.479-0.123,0.742c0.281,5.185,1.064,19.649,1.064,19.649c0.089,1.637,1.403,2.918,2.994,2.918h11.744
					c0.002,0,0.004-0.001,0.006-0.001C437.437,273.754,435.064,272.356,432.981,270.358z"/>
			</g>
			<g>
				<g>
					<g>
						<path style="fill:#41A6FC;" d="M477.303,265.586h30.334c2.522,0,4.566,2.044,4.566,4.566l0,0c0,2.522-2.045,4.566-4.566,4.566
							h-30.334c0-0.332,0-0.711,0-1.087c1.507-2.542,2.012-4.278,0-6.959C477.303,266.363,477.303,265.586,477.303,265.586z"/>
						<path style="fill:#41A6FC;" d="M449.25,265.586h30.334c2.522,0,4.566,2.044,4.566,4.566l0,0c0,2.522-2.044,4.566-4.566,4.566
							H449.25c0-0.332,0-0.711,0-1.087c1.507-2.542,2.012-4.278,0-6.959C449.25,266.363,449.25,265.586,449.25,265.586z"/>
						<path style="fill:#FDFDFD;" d="M449.25,266.673h29.74c1.922,0,3.48,1.558,3.48,3.48l0,0c0,1.922-1.558,3.48-3.48,3.48
							l-29.74,0C450.696,271.199,450.853,268.867,449.25,266.673z"/>
					</g>
				</g>
				<g>
					<g>
						<path style="fill:#EE5E00;" d="M477.303,256.454h30.334c2.522,0,4.566,2.045,4.566,4.566l0,0c0,2.522-2.045,4.566-4.566,4.566
							l-30.334,0c0-0.332,0-0.71,0-1.087c1.507-2.542,2.012-4.277,0-6.959C477.303,257.231,477.303,256.454,477.303,256.454z"/>
						<path style="fill:#EE5E00;" d="M449.25,256.454h30.334c2.522,0,4.566,2.045,4.566,4.566l0,0c0,2.522-2.044,4.566-4.566,4.566
							l-30.334,0c0-0.332,0-0.71,0-1.087c1.507-2.542,2.012-4.277,0-6.959C449.25,257.231,449.25,256.454,449.25,256.454z"/>
						<path style="fill:#FDFDFD;" d="M449.25,257.541h29.74c1.922,0,3.48,1.558,3.48,3.48l0,0c0,1.922-1.558,3.479-3.48,3.479
							h-29.74C450.696,262.067,450.853,259.735,449.25,257.541z"/>
					</g>
				</g>
				<g>
					<g>
						<path style="fill:#EECF00;" d="M477.303,247.322h30.334c2.522,0,4.566,2.044,4.566,4.566l0,0c0,2.522-2.045,4.566-4.566,4.566
							h-30.334c0-0.332,0-0.71,0-1.086c1.507-2.542,2.012-4.277,0-6.959C477.303,248.098,477.303,247.322,477.303,247.322z"/>
						<path style="fill:#EECF00;" d="M449.25,247.322h30.334c2.522,0,4.566,2.044,4.566,4.566l0,0c0,2.522-2.044,4.566-4.566,4.566
							H449.25c0-0.332,0-0.71,0-1.086c1.507-2.542,2.012-4.277,0-6.959C449.25,248.098,449.25,247.322,449.25,247.322z"/>
						<path style="fill:#FDFDFD;" d="M449.25,248.408h29.74c1.922,0,3.48,1.558,3.48,3.48l0,0c0,1.922-1.558,3.479-3.48,3.479
							h-29.74C450.696,252.935,450.853,250.603,449.25,248.408z"/>
					</g>
				</g>
			</g>
			<g>
				<path style="fill:#002DB0;" d="M309.049,274.787H294c-0.835,0-1.511-0.677-1.511-1.511v-20.861c0-0.835,0.677-1.511,1.511-1.511
					h15.048c0.835,0,1.512,0.677,1.512,1.511v20.861C310.56,274.11,309.883,274.787,309.049,274.787z"/>
				<path style="opacity:0.43;fill:#002DB0;" d="M292.848,251.389c-0.22,0.25-0.359,0.575-0.359,0.935v21.042
					c0,0.785,0.636,1.421,1.421,1.421h15.23c0.738,0,1.338-0.565,1.407-1.285C301.488,269.413,296.035,260.978,292.848,251.389z"/>
				<g>
					<path style="fill:#002DB0;" d="M292.489,272.96c-4.781,0-8.671-3.89-8.671-8.671v-2.578c0-4.781,3.89-8.671,8.671-8.671v2.82
						c-3.226,0-5.852,2.625-5.852,5.852v2.578c0,3.226,2.625,5.851,5.852,5.851V272.96z"/>
				</g>
			</g>
		</g>
		<g>
			<g>
				<g style="opacity:0.3;">
					<path style="fill:#A0A5BC;" d="M483.495,195.257h-54.775c-3.053,0-5.528-2.475-5.528-5.527v-31.66
						c0-3.053,2.475-5.528,5.528-5.528h54.775c3.053,0,5.527,2.475,5.527,5.528v31.66
						C489.022,192.783,486.548,195.257,483.495,195.257z"/>
					<polygon style="fill:#A0A5BC;" points="427.951,192.183 423.863,205.742 436.046,193.194 					"/>
					<path style="fill:#A0A5BC;" d="M480.417,164.085h-48.62c-0.67,0-1.212-0.543-1.212-1.212s0.542-1.212,1.212-1.212h48.62
						c0.67,0,1.212,0.543,1.212,1.212S481.087,164.085,480.417,164.085z M481.629,170.225c0-0.669-0.542-1.212-1.212-1.212h-48.62
						c-0.67,0-1.212,0.543-1.212,1.212c0,0.669,0.542,1.212,1.212,1.212h48.62C481.087,171.436,481.629,170.894,481.629,170.225z
						 M481.629,177.576c0-0.669-0.542-1.212-1.212-1.212h-48.62c-0.67,0-1.212,0.543-1.212,1.212c0,0.669,0.542,1.212,1.212,1.212
						h48.62C481.087,178.788,481.629,178.245,481.629,177.576z M481.629,184.927c0-0.669-0.542-1.212-1.212-1.212h-48.62
						c-0.67,0-1.212,0.543-1.212,1.212c0,0.669,0.542,1.212,1.212,1.212h48.62C481.087,186.139,481.629,185.596,481.629,184.927z"/>
				</g>
				<g>
					<g>
						<path style="fill:#EECF00;" d="M479.157,190.92h-54.775c-3.053,0-5.528-2.475-5.528-5.527v-31.66
							c0-3.053,2.475-5.527,5.528-5.527h54.775c3.053,0,5.527,2.475,5.527,5.527v31.66
							C484.685,188.445,482.21,190.92,479.157,190.92z"/>
						<polygon style="fill:#EECF00;" points="423.614,187.845 419.525,201.404 431.709,188.857 						"/>
						<path style="fill:#FFFFFC;" d="M476.08,159.748h-48.62c-0.67,0-1.212-0.543-1.212-1.212s0.542-1.212,1.212-1.212h48.62
							c0.67,0,1.212,0.543,1.212,1.212S476.749,159.748,476.08,159.748z M477.292,165.887c0-0.669-0.542-1.212-1.212-1.212h-48.62
							c-0.67,0-1.212,0.543-1.212,1.212c0,0.669,0.542,1.212,1.212,1.212h48.62C476.749,167.099,477.292,166.556,477.292,165.887z
							 M477.292,173.238c0-0.669-0.542-1.212-1.212-1.212h-48.62c-0.67,0-1.212,0.543-1.212,1.212c0,0.669,0.542,1.212,1.212,1.212
							h48.62C476.749,174.45,477.292,173.907,477.292,173.238z M477.292,180.589c0-0.669-0.542-1.212-1.212-1.212h-48.62
							c-0.67,0-1.212,0.543-1.212,1.212c0,0.669,0.542,1.212,1.212,1.212h48.62C476.749,181.801,477.292,181.259,477.292,180.589z"
							/>
					</g>
				</g>
			</g>
			<g>
				<g style="opacity:0.3;">
					<g>
						<defs>
							<path id="SVGID_00000001642708919059951900000013411034390073883042_" d="M371.755,118.946h-35.934
								c-2.1,0-3.803-1.703-3.803-3.803v-22.99c0-2.1,1.703-3.803,3.803-3.803h35.934c2.1,0,3.803,1.703,3.803,3.803v22.99
								C375.558,117.243,373.855,118.946,371.755,118.946z"/>
						</defs>
						<clipPath id="SVGID_00000087393681320714623800000006979632222230093497_">
							<use xlink:href="#SVGID_00000001642708919059951900000013411034390073883042_"  style="overflow:visible;"/>
						</clipPath>
					</g>
					<path style="fill:#A0A5BC;" d="M386.747,128.787h-66.403c-3.053,0-5.528-2.475-5.528-5.528V84.056
						c0-3.053,2.475-5.528,5.528-5.528h66.403c3.053,0,5.528,2.475,5.528,5.528v39.204
						C392.274,126.313,389.799,128.787,386.747,128.787z"/>
					<polygon style="fill:#A0A5BC;" points="320.417,125.169 336.637,156.331 329.941,126.36 					"/>
					<g>
						<defs>
							<path id="SVGID_00000085946074396707140030000009023368621444259984_" d="M371.755,118.946h-35.934
								c-2.1,0-3.803-1.703-3.803-3.803v-22.99c0-2.1,1.703-3.803,3.803-3.803h35.934c2.1,0,3.803,1.703,3.803,3.803v22.99
								C375.558,117.243,373.855,118.946,371.755,118.946z"/>
						</defs>
						<clipPath id="SVGID_00000143618935927169699630000015334696228741227399_">
							<use xlink:href="#SVGID_00000085946074396707140030000009023368621444259984_"  style="overflow:visible;"/>
						</clipPath>
						
							<rect x="332.018" y="88.351" style="clip-path:url(#SVGID_00000143618935927169699630000015334696228741227399_);fill:#A0A5BC;" width="43.539" height="30.595"/>
						<polygon style="clip-path:url(#SVGID_00000143618935927169699630000015334696228741227399_);fill:#A0A5BC;" points="
							375.558,118.946 332.018,118.946 353.788,99.893 						"/>
						
							<polyline style="clip-path:url(#SVGID_00000143618935927169699630000015334696228741227399_);fill:none;stroke:#A0A5BC;stroke-width:1.1816;stroke-miterlimit:10;" points="
							332.018,118.946 353.788,99.893 375.558,118.946 						"/>
						<polygon style="clip-path:url(#SVGID_00000143618935927169699630000015334696228741227399_);fill:#A0A5BC;" points="
							353.788,103.648 332.018,88.351 375.558,88.351 						"/>
						
							<polyline style="clip-path:url(#SVGID_00000143618935927169699630000015334696228741227399_);fill:none;stroke:#A0A5BC;stroke-width:1.1816;stroke-miterlimit:10;" points="
							375.558,88.351 353.788,103.648 332.018,88.351 						"/>
					</g>
					<g>
						<defs>
							<path id="SVGID_00000166663802329992334410000005071147382451776944_" d="M371.755,118.946h-35.934
								c-2.1,0-3.803-1.703-3.803-3.803v-22.99c0-2.1,1.703-3.803,3.803-3.803h35.934c2.1,0,3.803,1.703,3.803,3.803v22.99
								C375.558,117.243,373.855,118.946,371.755,118.946z"/>
						</defs>
						<clipPath id="SVGID_00000145746181432475381330000007560236946022028724_">
							<use xlink:href="#SVGID_00000166663802329992334410000005071147382451776944_"  style="overflow:visible;"/>
						</clipPath>
					</g>
				</g>
				<g>
					<g>
						<g>
							<defs>
								<path id="SVGID_00000084523368849583838320000016772583948302682266_" d="M367.028,114.219h-35.934
									c-2.1,0-3.803-1.703-3.803-3.803V87.427c0-2.1,1.703-3.803,3.803-3.803h35.934c2.1,0,3.803,1.702,3.803,3.803v22.989
									C370.831,112.517,369.128,114.219,367.028,114.219z"/>
							</defs>
							<clipPath id="SVGID_00000067234213024766309100000004406620652817051820_">
								<use xlink:href="#SVGID_00000084523368849583838320000016772583948302682266_"  style="overflow:visible;"/>
							</clipPath>
						</g>
					</g>
					<g>
						<path style="fill:#DE5D1D;" d="M382.02,124.061h-66.403c-3.053,0-5.528-2.475-5.528-5.527V79.329
							c0-3.053,2.475-5.527,5.528-5.527h66.403c3.053,0,5.527,2.475,5.527,5.527v39.204
							C387.548,121.586,385.073,124.061,382.02,124.061z"/>
						<polygon style="fill:#DE5D1D;" points="315.69,120.443 331.911,151.604 325.215,121.633 						"/>
						<g>
							<defs>
								<path id="SVGID_00000099654876130545232930000015073571430255297458_" d="M367.028,114.219h-35.934
									c-2.1,0-3.803-1.703-3.803-3.803V87.427c0-2.1,1.703-3.803,3.803-3.803h35.934c2.1,0,3.803,1.702,3.803,3.803v22.989
									C370.831,112.517,369.128,114.219,367.028,114.219z"/>
							</defs>
							<clipPath id="SVGID_00000124845342626317493760000003594900401413786787_">
								<use xlink:href="#SVGID_00000099654876130545232930000015073571430255297458_"  style="overflow:visible;"/>
							</clipPath>
							
								<rect x="327.292" y="83.624" style="clip-path:url(#SVGID_00000124845342626317493760000003594900401413786787_);fill:#FFFFFC;" width="43.539" height="30.595"/>
							<polygon style="clip-path:url(#SVGID_00000124845342626317493760000003594900401413786787_);fill:#FFFFFC;" points="
								370.831,114.219 327.292,114.219 349.061,95.166 							"/>
							
								<polyline style="clip-path:url(#SVGID_00000124845342626317493760000003594900401413786787_);fill:none;stroke:#E58F00;stroke-width:1.1816;stroke-miterlimit:10;" points="
								327.292,114.219 349.061,95.166 370.831,114.219 							"/>
							<polygon style="clip-path:url(#SVGID_00000124845342626317493760000003594900401413786787_);fill:#FFFFFC;" points="
								349.061,98.922 327.292,83.624 370.831,83.624 							"/>
							
								<polyline style="clip-path:url(#SVGID_00000124845342626317493760000003594900401413786787_);fill:none;stroke:#E58F00;stroke-width:1.1816;stroke-miterlimit:10;" points="
								370.831,83.624 349.061,98.922 327.292,83.624 							"/>
						</g>
					</g>
					<g>
						<g>
							<defs>
								<path id="SVGID_00000009560553696242574120000003488114724966809247_" d="M367.028,114.219h-35.934
									c-2.1,0-3.803-1.703-3.803-3.803V87.427c0-2.1,1.703-3.803,3.803-3.803h35.934c2.1,0,3.803,1.702,3.803,3.803v22.989
									C370.831,112.517,369.128,114.219,367.028,114.219z"/>
							</defs>
							<clipPath id="SVGID_00000060021749486149357220000016327892385667485585_">
								<use xlink:href="#SVGID_00000009560553696242574120000003488114724966809247_"  style="overflow:visible;"/>
							</clipPath>
						</g>
					</g>
				</g>
			</g>
			<g>
				<g style="opacity:0.3;">
					<path style="fill:#A0A5BC;" d="M385.566,201.024H349.46c-3,0-5.432-2.432-5.432-5.432v-28.115c0-3,2.432-5.432,5.432-5.432
						h36.107c3,0,5.432,2.432,5.432,5.432v28.115C390.999,198.592,388.567,201.024,385.566,201.024z"/>
					<path style="fill:#A0A5BC;" d="M377.373,198.465c0,0,12.205,13.266,12.205,12.735c0-0.531-4.599-15.565-4.599-15.565
						L377.373,198.465z"/>
					<path style="fill:#A0A5BC;" d="M377.997,188.73c-4.49,3.515-9.924,6.03-16.189-1.971c-6.264-8.001-2.519-12.673,1.971-16.188
						c0.956-0.749,5.216,3.632,4.521,5.353c-0.464,1.148-1.377,1.787-2.965,2.14c-2.333,0.519-2.535,2.34,0.174,5.799
						c2.754,3.518,4.613,3.72,5.698,1.508c0.728-1.484,1.638-2.119,2.822-2.355C375.524,182.717,379.197,187.791,377.997,188.73z"/>
					<path style="fill:#A0A5BC;" d="M361.614,196.904c-0.161,0-0.325-0.041-0.474-0.129c-4.486-2.631-7.681-7.262-8.547-12.389
						c-0.087-0.512,0.258-0.997,0.77-1.083c0.509-0.092,0.996,0.258,1.083,0.77c0.775,4.585,3.633,8.728,7.645,11.081
						c0.448,0.263,0.598,0.839,0.336,1.286C362.25,196.738,361.936,196.904,361.614,196.904z M364.421,195.285
						c-0.176,0-0.354-0.05-0.513-0.153c-4.605-3.007-7.866-7.825-8.948-13.217c-0.102-0.509,0.228-1.004,0.737-1.107
						c0.51-0.102,1.004,0.228,1.107,0.737c0.969,4.829,4.009,9.321,8.133,12.013c0.435,0.284,0.557,0.867,0.273,1.301
						C365.029,195.135,364.728,195.285,364.421,195.285z M377.319,181.248c-0.363,0-0.708-0.211-0.862-0.564
						c-1.554-3.557-4.194-6.693-7.434-8.832c-0.433-0.286-0.553-0.869-0.267-1.302c0.286-0.433,0.87-0.553,1.302-0.267
						c3.54,2.336,6.424,5.763,8.121,9.648c0.208,0.476-0.009,1.03-0.485,1.238C377.573,181.223,377.444,181.248,377.319,181.248z
						 M379.499,180.128c-0.401,0-0.773-0.259-0.898-0.663c-1.277-4.125-4.331-7.768-8.17-9.744
						c-0.462-0.238-0.643-0.805-0.406-1.266c0.238-0.461,0.805-0.643,1.266-0.406c4.342,2.235,7.661,6.194,9.105,10.86
						c0.153,0.496-0.124,1.022-0.62,1.175C379.684,180.115,379.59,180.128,379.499,180.128z"/>
				</g>
				<g>
					<g>
						<path style="fill:#0057F3;" d="M381.807,197.264H345.7c-3,0-5.432-2.432-5.432-5.432v-28.115c0-3,2.432-5.432,5.432-5.432
							h36.107c3,0,5.432,2.432,5.432,5.432v28.115C387.239,194.832,384.807,197.264,381.807,197.264z"/>
						<path style="fill:#0057F3;" d="M373.614,194.705c0,0,12.205,13.266,12.205,12.735s-4.599-15.565-4.599-15.565L373.614,194.705
							z"/>
						<g>
							<path style="fill:#FFFFFC;" d="M374.237,184.971c-4.49,3.515-9.924,6.03-16.189-1.971
								c-6.264-8.001-2.519-12.673,1.971-16.188c0.956-0.749,5.216,3.632,4.521,5.353c-0.464,1.148-1.377,1.787-2.965,2.14
								c-2.333,0.518-2.535,2.34,0.174,5.798c2.754,3.518,4.613,3.72,5.698,1.508c0.728-1.484,1.638-2.12,2.822-2.356
								C371.764,178.957,375.438,184.031,374.237,184.971z"/>
						</g>
						<path style="fill:#FFFFFC;" d="M357.854,193.144c-0.162,0-0.325-0.041-0.475-0.129c-4.486-2.631-7.681-7.262-8.547-12.39
							c-0.087-0.512,0.258-0.997,0.77-1.083c0.509-0.092,0.996,0.258,1.083,0.77c0.775,4.585,3.633,8.728,7.645,11.081
							c0.448,0.263,0.598,0.839,0.336,1.286C358.49,192.978,358.177,193.144,357.854,193.144z M360.661,191.526
							c-0.176,0-0.354-0.05-0.513-0.153c-4.604-3.007-7.866-7.825-8.948-13.217c-0.102-0.509,0.228-1.004,0.737-1.107
							c0.51-0.102,1.004,0.228,1.107,0.737c0.969,4.829,4.009,9.321,8.133,12.013c0.435,0.284,0.557,0.866,0.273,1.301
							C361.269,191.376,360.968,191.526,360.661,191.526z M373.56,177.489c-0.362,0-0.708-0.211-0.862-0.564
							c-1.554-3.557-4.194-6.693-7.434-8.832c-0.433-0.286-0.553-0.869-0.267-1.302c0.286-0.433,0.87-0.553,1.302-0.267
							c3.54,2.337,6.424,5.763,8.121,9.648c0.208,0.476-0.009,1.03-0.485,1.238C373.813,177.463,373.685,177.489,373.56,177.489z
							 M375.739,176.369c-0.401,0-0.773-0.259-0.898-0.663c-1.277-4.125-4.331-7.768-8.17-9.744
							c-0.462-0.238-0.643-0.804-0.406-1.266c0.238-0.461,0.805-0.643,1.266-0.406c4.342,2.236,7.661,6.194,9.105,10.86
							c0.153,0.496-0.124,1.022-0.62,1.175C375.924,176.355,375.831,176.369,375.739,176.369z"/>
					</g>
				</g>
			</g>
			<g>
				<g style="opacity:0.3;">
					
						<ellipse transform="matrix(0.1621 -0.9868 0.9868 0.1621 337.7458 604.9329)" style="fill:#A0A5BC;" cx="525.071" cy="103.594" rx="37.534" ry="37.534"/>
					
						<ellipse transform="matrix(0.8148 -0.5797 0.5797 0.8148 37.1839 323.5882)" style="fill:#A0A5BC;" cx="525.071" cy="103.594" rx="30.399" ry="30.399"/>
					<path style="fill:#A0A5BC;" d="M537.299,121.056c-0.523,0-1.038-0.232-1.384-0.676l-12.227-15.71
						c-0.24-0.308-0.37-0.687-0.37-1.076V79.181c0-0.968,0.785-1.752,1.752-1.752c0.967,0,1.752,0.784,1.752,1.752v23.811
						l11.857,15.236c0.594,0.764,0.458,1.865-0.307,2.459C538.055,120.936,537.676,121.056,537.299,121.056z"/>
				</g>
				<g>
					<g>
						<circle style="fill:#3400FF;" cx="520.399" cy="98.922" r="37.534"/>
						
							<ellipse transform="matrix(0.6365 -0.7712 0.7712 0.6365 112.8493 437.3059)" style="fill:#FFFFFC;" cx="520.399" cy="98.922" rx="30.399" ry="30.399"/>
						<g>
							<path style="fill:#EECF00;" d="M532.627,116.384c-0.523,0-1.038-0.232-1.384-0.676l-12.227-15.71
								c-0.24-0.308-0.37-0.687-0.37-1.076V74.509c0-0.968,0.785-1.752,1.752-1.752c0.967,0,1.752,0.784,1.752,1.752V98.32
								l11.858,15.236c0.594,0.764,0.457,1.865-0.307,2.459C533.382,116.263,533.004,116.384,532.627,116.384z"/>
						</g>
					</g>
				</g>
			</g>
			<g>
				<g style="opacity:0.3;">
					<path style="fill:#A0A5BC;" d="M544.339,213.583h-34.003c-3.535,0-6.4-2.865-6.4-6.4v-24.905c0-3.535,2.865-6.4,6.4-6.4h34.003
						c3.535,0,6.4,2.865,6.4,6.4v24.905C550.739,210.717,547.874,213.583,544.339,213.583z"/>
					<path style="fill:#A0A5BC;" d="M520.457,182.604v24.254c0,0.427-0.346,0.773-0.772,0.773c-1.813,0-6.325,0-8.138,0
						c-0.427,0-0.772-0.346-0.772-0.772c0-3.797,0-20.457,0-24.254c0-0.427,0.346-0.772,0.772-0.772c1.813,0,6.325,0,8.138,0
						C520.112,181.831,520.457,182.177,520.457,182.604z"/>
					<path style="fill:#A0A5BC;" d="M522.497,190.882v15.975c0,0.427,0.346,0.773,0.773,0.773h8.137
						c0.427,0,0.773-0.346,0.773-0.773v-15.975c0-0.427-0.346-0.773-0.772-0.773c-1.813,0-6.325,0-8.138,0
						C522.842,190.11,522.497,190.456,522.497,190.882z"/>
					<path style="fill:#A0A5BC;" d="M534.218,197.259v9.598c0,0.427,0.346,0.773,0.772,0.773c1.813,0,6.325,0,8.138,0
						c0.427,0,0.772-0.346,0.772-0.773v-9.598c0-0.427-0.346-0.773-0.773-0.773h-8.137
						C534.564,196.486,534.218,196.832,534.218,197.259z"/>
				</g>
				<g>
					<g>
						<path style="fill:#FFFFFC;" d="M541.135,210.378h-34.003c-3.535,0-6.4-2.865-6.4-6.4v-24.905c0-3.535,2.865-6.4,6.4-6.4
							h34.003c3.535,0,6.4,2.865,6.4,6.4v24.905C547.535,207.513,544.669,210.378,541.135,210.378z"/>
						<g>
							<g>
								<path style="fill:#EECF00;" d="M517.253,179.399v24.254c0,0.427-0.346,0.773-0.772,0.773c-1.813,0-6.325,0-8.138,0
									c-0.427,0-0.772-0.346-0.772-0.772c0-3.797,0-20.457,0-24.255c0-0.427,0.346-0.772,0.772-0.772c1.813,0,6.325,0,8.138,0
									C516.907,178.626,517.253,178.972,517.253,179.399z"/>
								<path style="fill:#EE5E00;" d="M519.292,187.678v15.975c0,0.427,0.346,0.773,0.773,0.773h8.137
									c0.427,0,0.773-0.346,0.773-0.773v-15.975c0-0.427-0.345-0.773-0.772-0.773c-1.813,0-6.325,0-8.138,0
									C519.638,186.905,519.292,187.251,519.292,187.678z"/>
								<path style="fill:#A2D9FF;" d="M531.014,194.054v9.598c0,0.427,0.346,0.773,0.772,0.773c1.813,0,6.325,0,8.138,0
									c0.427,0,0.772-0.346,0.772-0.773v-9.598c0-0.427-0.346-0.773-0.773-0.773h-8.137
									C531.36,193.282,531.014,193.628,531.014,194.054z"/>
							</g>
						</g>
					</g>
				</g>
			</g>
			<g>
				<g style="opacity:0.3;">
					
						<ellipse transform="matrix(0.6724 -0.7402 0.7402 0.6724 -24.5326 185.259)" style="fill:#A0A5BC;" cx="197.01" cy="120.343" rx="22.236" ry="22.236"/>
					<polygon style="fill:#A0A5BC;" points="208.616,136.221 219.865,145.415 212.85,131.02 					"/>
					<path style="fill:#A0A5BC;" d="M201.813,105.191c-0.266-0.277-0.663-0.382-1.032-0.277c-0.369,0.106-0.648,0.408-0.727,0.783
						l-4.024,19.207c-0.874-0.913-2.098-1.487-3.462-1.487c-2.652,0-4.802,2.15-4.802,4.802c0,2.652,2.15,4.802,4.802,4.802
						c2.399,0,4.37-1.764,4.728-4.063l4.366-20.838c2.541,3.017,5.193,7.254,4.042,9.223c-0.373,0.638-0.831,1.014-1.399,1.151
						c-1.035,0.25-2.282-0.35-2.672-0.599c-0.479-0.313-1.121-0.177-1.433,0.301c-0.312,0.479-0.177,1.121,0.301,1.433
						c0.087,0.057,2.153,1.385,4.271,0.882c1.137-0.269,2.052-0.983,2.718-2.124C210.076,113.966,202.666,106.076,201.813,105.191z"
						/>
				</g>
				<g>
					<g>
						
							<ellipse transform="matrix(0.2356 -0.9719 0.9719 0.2356 34.4219 276.9286)" style="fill:#FFFFFC;" cx="193.25" cy="116.583" rx="22.236" ry="22.236"/>
						<polygon style="fill:#FFFFFC;" points="204.856,132.462 216.106,141.655 209.09,127.26 						"/>
						<path style="fill:#DE5D1D;" d="M198.053,101.431c-0.266-0.276-0.663-0.382-1.032-0.276c-0.368,0.106-0.648,0.407-0.726,0.783
							l-4.024,19.207c-0.874-0.913-2.098-1.487-3.462-1.487c-2.652,0-4.802,2.15-4.802,4.802c0,2.652,2.15,4.802,4.802,4.802
							c2.399,0,4.37-1.764,4.728-4.063l4.366-20.838c2.541,3.018,5.193,7.254,4.042,9.223c-0.373,0.638-0.831,1.014-1.399,1.151
							c-1.035,0.25-2.283-0.35-2.672-0.599c-0.479-0.313-1.121-0.178-1.433,0.301c-0.312,0.479-0.177,1.121,0.301,1.433
							c0.087,0.057,2.153,1.385,4.271,0.882c1.137-0.269,2.052-0.983,2.718-2.124C206.316,110.206,198.907,102.316,198.053,101.431z
							"/>
					</g>
				</g>
			</g>
			<g>
				<g style="opacity:0.3;">
					<polygon style="fill:#A0A5BC;" points="427.896,110.485 417.482,138.572 434.376,112.5 					"/>
					<circle style="fill:#A0A5BC;" cx="438.29" cy="98.559" r="21.025"/>
					<path style="fill:#A0A5BC;" d="M437.117,81.632l11.125,2.117l-9.276,18.463l-4.432-1.446L437.117,81.632z M434.969,104.836
						c-1.776-0.338-3.489,0.828-3.827,2.603c-0.338,1.775,0.828,3.489,2.603,3.826c1.776,0.338,3.489-0.828,3.827-2.603
						C437.91,106.887,436.744,105.174,434.969,104.836z"/>
					<path style="fill:#A0A5BC;" d="M444.82,110.015c-0.175,0-0.351-0.056-0.5-0.172c-0.354-0.277-0.417-0.788-0.141-1.142
						c2.3-2.946,3.377-6.918,2.883-10.623c-0.06-0.445,0.253-0.855,0.699-0.914c0.449-0.058,0.854,0.254,0.914,0.699
						c0.559,4.192-0.612,8.508-3.214,11.84C445.302,109.907,445.063,110.015,444.82,110.015z M442.947,109.02
						c-0.145,0-0.292-0.039-0.425-0.12c-0.383-0.235-0.503-0.736-0.268-1.119c1.759-2.863,2.683-6.291,2.599-9.65
						c-0.011-0.449,0.344-0.823,0.794-0.834c0.461-0.011,0.823,0.344,0.834,0.793c0.091,3.67-0.918,7.414-2.839,10.542
						C443.487,108.882,443.22,109.02,442.947,109.02z M426.594,106.799c-0.438,0-0.799-0.349-0.813-0.79
						c-0.14-4.759,1.67-9.46,4.966-12.895c0.311-0.325,0.826-0.335,1.151-0.024c0.324,0.311,0.335,0.826,0.024,1.151
						c-2.952,3.076-4.639,7.458-4.514,11.72c0.013,0.449-0.341,0.824-0.79,0.837C426.611,106.799,426.603,106.799,426.594,106.799z
						 M424.056,105.604c-0.421,0-0.777-0.324-0.811-0.751c-0.35-4.488,1.361-9.049,4.576-12.2c0.319-0.315,0.836-0.311,1.151,0.011
						c0.315,0.321,0.31,0.836-0.011,1.151c-2.875,2.819-4.405,6.898-4.092,10.912c0.035,0.448-0.3,0.84-0.749,0.874
						C424.098,105.604,424.077,105.604,424.056,105.604z"/>
				</g>
				<g>
					<g>
						<polygon style="fill:#FFFFFC;" points="424.641,107.23 414.227,135.317 431.121,109.245 						"/>
						<circle style="fill:#FFFFFC;" cx="435.035" cy="95.304" r="21.025"/>
						<path style="fill:#DE5D1D;" d="M433.862,78.377l11.125,2.117l-9.276,18.463l-4.432-1.446L433.862,78.377z M431.714,101.581
							c-1.776-0.338-3.489,0.828-3.827,2.603c-0.338,1.776,0.828,3.489,2.603,3.826c1.776,0.338,3.489-0.828,3.827-2.603
							S433.489,101.919,431.714,101.581z"/>
						<path style="fill:#DE5D1D;" d="M441.566,106.76c-0.175,0-0.351-0.056-0.5-0.172c-0.354-0.277-0.417-0.788-0.141-1.142
							c2.3-2.946,3.377-6.918,2.883-10.623c-0.06-0.445,0.253-0.855,0.699-0.914c0.449-0.058,0.854,0.254,0.914,0.699
							c0.559,4.192-0.612,8.508-3.214,11.84C442.047,106.652,441.808,106.76,441.566,106.76z M439.692,105.765
							c-0.145,0-0.292-0.039-0.425-0.12c-0.383-0.235-0.503-0.736-0.268-1.119c1.759-2.863,2.683-6.291,2.599-9.65
							c-0.011-0.449,0.344-0.822,0.794-0.834c0.461-0.011,0.822,0.344,0.834,0.793c0.091,3.67-0.918,7.414-2.839,10.542
							C440.232,105.627,439.965,105.765,439.692,105.765z M423.339,103.544c-0.438,0-0.799-0.349-0.813-0.79
							c-0.14-4.759,1.67-9.46,4.966-12.895c0.311-0.325,0.826-0.335,1.151-0.024c0.324,0.311,0.335,0.826,0.024,1.151
							c-2.952,3.076-4.639,7.458-4.514,11.72c0.013,0.449-0.341,0.824-0.79,0.837C423.356,103.544,423.348,103.544,423.339,103.544z
							 M420.801,102.35c-0.421,0-0.777-0.324-0.81-0.751c-0.35-4.488,1.361-9.049,4.576-12.2c0.319-0.315,0.836-0.311,1.151,0.011
							c0.315,0.321,0.31,0.836-0.011,1.151c-2.875,2.819-4.405,6.898-4.092,10.912c0.035,0.448-0.3,0.84-0.749,0.874
							C420.843,102.349,420.823,102.35,420.801,102.35z"/>
					</g>
				</g>
			</g>
		</g>
	</g>
</g>
</svg>
